<?xml version="1.0" standalone="no"?>
<!DOCTYPE svg PUBLIC "-//W3C//DTD SVG 20010904//EN"
 "http://www.w3.org/TR/2001/REC-SVG-20010904/DTD/svg10.dtd">
<svg version="1.0" xmlns="http://www.w3.org/2000/svg"
 width="300.000000pt" height="300.000000pt" viewBox="0 0 300.000000 300.000000"
 preserveAspectRatio="xMidYMid meet">
<metadata>
Created by potrace 1.11, written by Peter Selinger 2001-2013
</metadata>
<g transform="translate(0.000000,300.000000) scale(0.100000,-0.100000)"
fill="#000000" stroke="none">
<path d="M332 2985 c-103 -23 -202 -93 -263 -188 -72 -112 -70 -64 -67 -1327
4 -1249 -1 -1160 71 -1273 63 -98 150 -158 266 -183 98 -20 2224 -20 2322 0
116 25 203 85 266 183 72 113 67 25 70 1270 4 1250 6 1212 -62 1323 -61 101
-160 171 -273 195 -97 21 -2235 20 -2330 0z m1864 -892 c22 -12 55 -38 72 -57
60 -69 62 -86 62 -648 l0 -508 -180 0 -180 0 0 425 c0 409 -1 425 -19 435 -11
5 -76 10 -145 10 l-126 0 0 -435 0 -435 -180 0 -180 0 0 435 0 435 -129 0
c-104 0 -133 -3 -145 -16 -14 -14 -16 -67 -16 -435 l0 -419 -185 0 -186 0 3
518 c3 465 5 522 21 563 28 73 94 130 172 150 17 4 316 7 665 6 633 -2 635 -2
676 -24z"/>
</g>
</svg>
