<svg xmlns="http://www.w3.org/2000/svg" width="82" height="27.466" viewBox="0 0 82 27.466">
  <path id="Path_187" data-name="Path 187" d="M81.4,9.974a7.492,7.492,0,0,0-11.839,0,7.773,7.773,0,0,0-1.407,4.575,7.773,7.773,0,0,0,1.407,4.575,7.492,7.492,0,0,0,11.839,0,7.778,7.778,0,0,0,1.407-4.575A7.778,7.778,0,0,0,81.4,9.974Zm-2.345,6.291a3.926,3.926,0,0,1-3.58,2.9,3.818,3.818,0,0,1-3.575-2.9,5.3,5.3,0,0,1,0-3.432,3.925,3.925,0,0,1,3.575-2.9,3.835,3.835,0,0,1,3.58,2.9,5.308,5.308,0,0,1,0,3.426Zm-53.9,5.376a.423.423,0,0,1-.423.423H22.268a.423.423,0,0,1-.423-.423V1.423A.423.423,0,0,1,22.268,1h2.459a.423.423,0,0,1,.423.423Zm-5.777,0a.423.423,0,0,1-.423.423H16.492a.423.423,0,0,1-.423-.423V1.423A.423.423,0,0,1,16.486,1h2.459a.423.423,0,0,1,.423.423V21.641ZM67.6,7.915V9.631a.446.446,0,0,1-.572.486c-2.78-.572-4.49.663-4.49,3.231v8.293a.423.423,0,0,1-.423.423H59.656a.423.423,0,0,1-.423-.423v-8.47a5.719,5.719,0,0,1,1.813-4.284,6.383,6.383,0,0,1,4.5-1.819,9.546,9.546,0,0,1,1.716.16c.292.1.337.269.337.709ZM57.071,14.543a7.67,7.67,0,0,0-1.407-4.575,7.492,7.492,0,0,0-11.839,0,8.047,8.047,0,0,0,0,9.151,7.281,7.281,0,0,0,5.92,2.9,7.55,7.55,0,0,0,4.215-1.27v1.807c0,2.454-2.145,2.9-3.517,2.986a16.163,16.163,0,0,1-2.825-.154c-.377-.057-.641,0-.641.406v2.173a.372.372,0,0,0,.389.355c3.186.275,5.33.217,6.943-.7a5.25,5.25,0,0,0,2.351-2.991,10,10,0,0,0,.406-2.986v-7.1Zm-7.326,4.61a3.877,3.877,0,0,1-3.58-2.9,5.3,5.3,0,0,1,0-3.432,3.877,3.877,0,0,1,3.58-2.9c3.952,0,4.084,4.032,4.084,4.616S53.7,19.153,49.744,19.153ZM13.815,13.062a6.36,6.36,0,0,0-1.373-4.455A6.519,6.519,0,0,0,7.867,7.074a9.917,9.917,0,0,0-5,1.333.315.315,0,0,0-.154.275l.132,2.15a.383.383,0,0,0,.629.223c2.145-1.321,4.718-1.567,6.028-.9a2.288,2.288,0,0,1,1.144,2.065v.315H7.066c-1.539,0-6.251.572-6.251,4.9v.046a4.2,4.2,0,0,0,1.527,3.477,6.04,6.04,0,0,0,3.821,1.092H13.4a.423.423,0,0,0,.423-.423V13.045ZM10.641,19.4H6.369a2.642,2.642,0,0,1-1.516-.532,1.681,1.681,0,0,1-.715-1.407c0-.772.52-2.316,3.123-2.316h3.38ZM34.2,7.074a6.735,6.735,0,0,0-6.9,5.416,8.339,8.339,0,0,0-.252,2.048,7.778,7.778,0,0,0,1.407,4.575,7.509,7.509,0,0,0,5.92,2.9,9.372,9.372,0,0,0,5.147-1,.669.669,0,0,0,.286-.726v-1.9c0-.389-.234-.572-.572-.337a7.464,7.464,0,0,1-4.758,1.144,3.9,3.9,0,0,1-3.821-3.472h9.723a.4.4,0,0,0,.4-.395c.172-2.659-.6-8.247-6.577-8.247ZM30.71,13.085a3.306,3.306,0,0,1,3.5-3.151,2.94,2.94,0,0,1,3.111,3.151Z" transform="translate(-0.809 -1)" fill="#ff5a00"/>
</svg>
