<svg xmlns="http://www.w3.org/2000/svg" width="77.735" height="23.426" viewBox="0 0 77.735 23.426">
  <g id="Group_33" data-name="Group 33" transform="translate(0 0)">
    <path id="path8" d="M177.98,195.641c-4.517,3.33-11.065,5.106-16.7,5.106a30.224,30.224,0,0,1-20.4-7.786c-.423-.382-.044-.9.464-.606a41.067,41.067,0,0,0,20.414,5.414,40.594,40.594,0,0,0,15.572-3.184c.765-.325,1.4.5.656,1.056" transform="translate(-129.755 -177.321)" fill="#f90" fill-rule="evenodd"/>
    <path id="path10" d="M577.539,183.853c-.575-.738-3.817-.349-5.272-.176-.443.054-.511-.332-.112-.609,2.582-1.817,6.818-1.293,7.312-.684s-.129,4.859-2.555,6.886c-.372.311-.727.145-.562-.267.545-1.36,1.766-4.409,1.188-5.15" transform="translate(-527.435 -167.681)" fill="#f90" fill-rule="evenodd"/>
    <path id="path12" d="M572.687,6.653V4.887a.436.436,0,0,1,.447-.447h7.908a.44.44,0,0,1,.457.447V6.4a2.489,2.489,0,0,1-.6,1.11l-4.1,5.851a8.731,8.731,0,0,1,4.511.968.8.8,0,0,1,.42.687V16.9c0,.257-.284.558-.582.4a9.11,9.11,0,0,0-8.355.014c-.274.149-.562-.149-.562-.406v-1.79a2.135,2.135,0,0,1,.291-1.215L577.275,7.1h-4.132a.437.437,0,0,1-.457-.443" transform="translate(-527.754 -4.095)" fill-rule="evenodd"/>
    <path id="path14" d="M173.3,14.984h-2.406a.454.454,0,0,1-.43-.409V2.228a.452.452,0,0,1,.464-.443h2.243a.453.453,0,0,1,.437.413V3.811h.044a3.306,3.306,0,0,1,6.29,0,3.553,3.553,0,0,1,6.108-.937c.761,1.039.606,2.548.606,3.871l0,7.793a.454.454,0,0,1-.464.447h-2.4a.457.457,0,0,1-.433-.447V7.994a15.455,15.455,0,0,0-.068-2.315,1.253,1.253,0,0,0-1.414-1.063,1.6,1.6,0,0,0-1.438,1.012,7.475,7.475,0,0,0-.223,2.365v6.544a.454.454,0,0,1-.464.447h-2.4a.455.455,0,0,1-.433-.447l0-6.544c0-1.377.227-3.4-1.482-3.4-1.729,0-1.661,1.976-1.661,3.4v6.544a.454.454,0,0,1-.464.447" transform="translate(-157.21 -1.405)" fill-rule="evenodd"/>
    <path id="path16" d="M714.725,1.524c3.57,0,5.5,3.066,5.5,6.964,0,3.766-2.135,6.754-5.5,6.754-3.506,0-5.414-3.066-5.414-6.886,0-3.844,1.932-6.832,5.414-6.832m.02,2.521c-1.773,0-1.885,2.416-1.885,3.922s-.024,4.731,1.865,4.731c1.864,0,1.952-2.6,1.952-4.182a11.411,11.411,0,0,0-.359-3.275,1.5,1.5,0,0,0-1.573-1.194" transform="translate(-654.172 -1.405)" fill-rule="evenodd"/>
    <path id="path18" d="M875.683,14.984h-2.4a.457.457,0,0,1-.433-.447l0-12.351a.455.455,0,0,1,.464-.4h2.23a.46.46,0,0,1,.43.345V4.018h.044c.673-1.689,1.617-2.494,3.279-2.494a3.157,3.157,0,0,1,2.809,1.455,7.847,7.847,0,0,1,.629,3.844V14.6a.462.462,0,0,1-.464.389h-2.413a.455.455,0,0,1-.426-.389V7.889c0-1.35.156-3.326-1.506-3.326a1.572,1.572,0,0,0-1.391.988,5.465,5.465,0,0,0-.382,2.338v6.649a.463.463,0,0,1-.47.447" transform="translate(-805 -1.405)" fill-rule="evenodd"/>
    <path id="path28" d="M412.826,7.681a4.706,4.706,0,0,1-.45,2.551,1.955,1.955,0,0,1-1.665,1.093c-.924,0-1.465-.7-1.465-1.743,0-2.051,1.837-2.423,3.58-2.423v.521m2.426,5.864a.5.5,0,0,1-.568.058A5.864,5.864,0,0,1,413.3,12a4.764,4.764,0,0,1-3.966,1.749,3.413,3.413,0,0,1-3.6-3.749A4.083,4.083,0,0,1,408.3,6.067a16.671,16.671,0,0,1,4.524-.836V4.92a3.068,3.068,0,0,0-.294-1.743,1.6,1.6,0,0,0-1.35-.626A1.83,1.83,0,0,0,409.25,4a.5.5,0,0,1-.42.44l-2.331-.25a.424.424,0,0,1-.359-.5C406.674.853,409.233,0,411.52,0a5.455,5.455,0,0,1,3.624,1.2c1.171,1.093,1.059,2.551,1.059,4.138V9.086a3.29,3.29,0,0,0,.907,2.23.455.455,0,0,1-.01.64c-.491.409-1.364,1.171-1.844,1.6l0-.007" transform="translate(-374.197)" fill-rule="evenodd"/>
    <path id="path30" d="M7.089,7.681a4.706,4.706,0,0,1-.45,2.551,1.951,1.951,0,0,1-1.665,1.093c-.924,0-1.462-.7-1.462-1.743,0-2.051,1.837-2.423,3.577-2.423v.521m2.426,5.864a.5.5,0,0,1-.568.058A5.923,5.923,0,0,1,7.566,12,4.76,4.76,0,0,1,3.6,13.748,3.414,3.414,0,0,1,0,10,4.088,4.088,0,0,1,2.565,6.067a16.67,16.67,0,0,1,4.524-.836V4.92A3.1,3.1,0,0,0,6.8,3.178a1.61,1.61,0,0,0-1.35-.626A1.834,1.834,0,0,0,3.512,4a.5.5,0,0,1-.416.44L.761,4.186a.426.426,0,0,1-.359-.5C.941.853,3.5,0,5.783,0A5.455,5.455,0,0,1,9.407,1.2c1.171,1.093,1.059,2.551,1.059,4.138V9.086a3.29,3.29,0,0,0,.907,2.23.452.452,0,0,1-.007.64c-.491.409-1.364,1.171-1.844,1.6l-.007-.007" transform="translate(0)" fill-rule="evenodd"/>
  </g>
</svg>
