<svg xmlns="http://www.w3.org/2000/svg" width="24.421" height="16" viewBox="0 0 24.421 16">
  <g id="_002-slovakia" data-name="002-slovakia" transform="translate(0 -88.276)">
    <path id="Path_229" data-name="Path 229" d="M24.421,93.609H0V88.7a.421.421,0,0,1,.421-.421H24a.421.421,0,0,1,.421.421v4.912Z" transform="translate(0 0)" fill="#f5f5f5"/>
    <path id="Path_230" data-name="Path 230" d="M24,317.242H.421A.421.421,0,0,1,0,316.821v-4.912H24.421v4.912A.421.421,0,0,1,24,317.242Z" transform="translate(0 -212.966)" fill="#ff4b55"/>
    <rect id="Rectangle_92" data-name="Rectangle 92" width="24.421" height="5.333" transform="translate(0 93.609)" fill="#41479b"/>
    <path id="Path_231" data-name="Path 231" d="M69.26,180.111c-.125-.072-3.053-1.775-3.053-4.394v-3.579h6.316v3.579c0,2.618-2.929,4.322-3.053,4.394l-.1.06Z" transform="translate(-63.049 -79.863)" fill="#ff4b55"/>
    <path id="Path_232" data-name="Path 232" d="M101.042,187.7l-.993.131h-.331v-.592h.2l.794.131-.108-.462.108-.462-.794.131h-.2v-.2l.131-.992-.462.134-.462-.134.131.992v.2h-.2l-.794-.131.108.462-.108.462.794-.131h.2v.592h-.331l-.992-.131.134.462-.134.462.992-.131h.331v1.523h.662v-1.523h.331l.993.131-.134-.462Z" transform="translate(-93.072 -92.472)" fill="#f5f5f5"/>
    <path id="Path_233" data-name="Path 233" d="M90.5,269.242a1.053,1.053,0,0,0-.968.64c-.028,0-.055-.008-.084-.008a1.05,1.05,0,0,0-1.046.992,7.975,7.975,0,0,0,1.995,1.718l.1.06.1-.06a7.973,7.973,0,0,0,1.995-1.718,1.05,1.05,0,0,0-1.046-.992c-.029,0-.056.006-.084.008A1.053,1.053,0,0,0,90.5,269.242Z" transform="translate(-84.188 -172.334)" fill="#41479b"/>
    <path id="Path_234" data-name="Path 234" d="M68.109,168.146v3.368c0,2.526-2.947,4.211-2.947,4.211s-2.947-1.684-2.947-4.211v-3.368h5.895m.421-.421H61.793v3.79c0,2.739,3.031,4.5,3.16,4.576l.209.119.209-.119c.129-.074,3.16-1.837,3.16-4.576v-3.79Z" transform="translate(-58.846 -75.66)" fill="#f5f5f5"/>
  </g>
</svg>
