<svg xmlns="http://www.w3.org/2000/svg" width="21.11" height="20.936" viewBox="0 0 21.11 20.936">
  <g id="phone-call" transform="translate(-6.709 -6.77)">
    <g id="Group_93" data-name="Group 93" transform="translate(6.709 6.77)">
      <path id="Path_210" data-name="Path 210" d="M27.572,25.113l0,0v-.007l-1.015,1.008a5.342,5.342,0,0,1-5.042,1.442,17.75,17.75,0,0,1-5.155-2.31,23.818,23.818,0,0,1-4.067-3.279,24,24,0,0,1-3.038-3.686,18.7,18.7,0,0,1-2.284-4.621A5.342,5.342,0,0,1,8.3,8.209L9.493,7.02a.848.848,0,0,1,1.2,0l0,0,3.753,3.753a.848.848,0,0,1,0,1.2l0,0-2.2,2.2a1.8,1.8,0,0,0-.187,2.337A25.771,25.771,0,0,0,14.7,19.594a25.613,25.613,0,0,0,3.472,2.918,1.81,1.81,0,0,0,2.31-.2l2.13-2.164a.848.848,0,0,1,1.2,0l0,0,3.759,3.766A.848.848,0,0,1,27.572,25.113Z" transform="translate(-6.709 -6.77)" fill="#d5d5d5"/>
    </g>
  </g>
</svg>
