<svg xmlns="http://www.w3.org/2000/svg" width="21.536" height="15.509" viewBox="0 0 21.536 15.509">
  <g id="mail" transform="translate(0 -42.749)">
    <g id="Group_96" data-name="Group 96" transform="translate(0 42.749)">
      <g id="Group_95" data-name="Group 95" transform="translate(0 0)">
        <path id="Path_214" data-name="Path 214" d="M18.784,51.441a.429.429,0,0,0,.458,0l2.33-1.949,6.289-5.256,1.492-1.247a1.254,1.254,0,0,0-.746-.239H9.384a1.255,1.255,0,0,0-.769.243l7.8,6.5Z" transform="translate(-8.227 -42.749)" fill="#d5d5d5"/>
        <path id="Path_215" data-name="Path 215" d="M0,76.556l7.366-6.17L0,64.257a.891.891,0,0,0,0,.162Z" transform="translate(0 -63.407)" fill="#d5d5d5"/>
        <path id="Path_216" data-name="Path 216" d="M11.615,232.928a1.321,1.321,0,0,1-.769.236,1.246,1.246,0,0,1-.557-.131,1.171,1.171,0,0,1-.165-.1l-2.118-1.767L.082,237.793v.428a1.089,1.089,0,0,0,1.153,1.011H20.6a1.066,1.066,0,0,0,1.007-1.011v-.435l-7.9-6.6Z" transform="translate(-0.078 -223.724)" fill="#d5d5d5"/>
        <path id="Path_217" data-name="Path 217" d="M321.816,64.086l-7.366,6.146,7.366,6.143V64.255A.915.915,0,0,0,321.816,64.086Z" transform="translate(-300.283 -63.243)" fill="#d5d5d5"/>
      </g>
    </g>
  </g>
</svg>
