<svg xmlns="http://www.w3.org/2000/svg" width="20.437" height="20.437" viewBox="0 0 20.437 20.437">
  <path id="Path_210" data-name="Path 210" d="M17.443,2.991a10.219,10.219,0,1,0,2.994,7.224A10.218,10.218,0,0,0,17.443,2.991ZM15.475,14.234h0v0l-.518.514a2.725,2.725,0,0,1-2.572.736A9.054,9.054,0,0,1,9.755,14.3a12.149,12.149,0,0,1-2.074-1.672,12.243,12.243,0,0,1-1.55-1.88A9.536,9.536,0,0,1,4.966,8.394a2.725,2.725,0,0,1,.681-2.783L6.253,5a.433.433,0,0,1,.612,0h0L8.781,6.919a.433.433,0,0,1,0,.612h0L7.657,8.656a.916.916,0,0,0-.1,1.192,13.146,13.146,0,0,0,1.345,1.57,13.065,13.065,0,0,0,1.771,1.489.923.923,0,0,0,1.179-.1l1.087-1.1a.433.433,0,0,1,.612,0h0l1.918,1.921A.432.432,0,0,1,15.475,14.234Z" transform="translate(0 0)" fill="#fff"/>
</svg>
