<svg id="logo" xmlns="http://www.w3.org/2000/svg" width="78.769" height="24" viewBox="0 0 78.769 24">
  <path id="Path_1" data-name="Path 1" d="M188.182,209.2V197.411a.828.828,0,0,0-.923-.923h-3.385V209.2h-5.262V196.488H175.29a.816.816,0,0,0-.923.923V209.2h-5.261V195.38c0-2.831,1.415-4.246,4.215-4.246H189.2c2.8,0,4.185,1.415,4.185,4.277V209.2Z" transform="translate(-169.105 -185.196)" fill="#187D71"/>
  <path id="Path_2" data-name="Path 2" d="M257.124,176.448q-1.108,0-1.108-1.2v-2.061a1.071,1.071,0,0,1,1.231-1.2h2.892a1.052,1.052,0,0,1,1.169,1.2v2.061a1.051,1.051,0,0,1-1.169,1.2Zm-1.108,19.538V177.924h5.323v18.062Z" transform="translate(-229.062 -171.986)" fill="#187D71"/>
  <path id="Path_3" data-name="Path 3" d="M281.91,197.355V173.971h5.323v23.384Z" transform="translate(-246.925 -173.355)" fill="#187D71"/>
  <path id="Path_4" data-name="Path 4" d="M307.8,197.355V173.971h5.323v23.384Z" transform="translate(-264.788 -173.355)" fill="#187D71"/>
  <path id="Path_5" data-name="Path 5" d="M338.1,198.04c-2.923,0-4.4-1.323-4.4-3.969V174.963h5.323v5.2H343.2v4.861H339.02v6.646c0,.708.277,1.046.8,1.046h3.354v5.323Z" transform="translate(-282.652 -174.04)" fill="#187D71"/>
  <path id="Path_6" data-name="Path 6" d="M374.713,209.2c-2.862,0-4.308-1.354-4.308-4.092V195.38c0-2.831,1.415-4.246,4.216-4.246h7.938c2.8,0,4.185,1.415,4.185,4.277v9.569c0,2.8-1.385,4.215-4.123,4.215Zm6.769-11.784a.816.816,0,0,0-.923-.923h-3.907a.816.816,0,0,0-.923.923v5.477c0,.646.308.985.923.985h3.907a.816.816,0,0,0,.923-.923Z" transform="translate(-307.975 -185.196)" fill="#187D71"/>
</svg>
