<svg xmlns="http://www.w3.org/2000/svg" width="920.591" height="569.1" viewBox="0 0 920.591 569.1">
  <g id="World_map_-_low_resolution" opacity="0.3">
    <path id="kalimantan" d="M783.536,324.437l-2.52,9.469-13.669,4.615-4.091-4.8-1.985.545,3.709,14.313,5.553.622,7.407,2.8v2.8l3.393-.622,4.942-6.84v-5.6l2.782-5.6,3.087.622L788.435,329l-.567-5.007-4.331.447Z" transform="translate(23.39 26.344)" fill="#d5d5d5"/>
    <path id="papua_new_guinea" data-name="papua new guinea" d="M852.793,348.29l-.4,26.663,3.84-.207,5.051-5.9,4.244.207,2.727,2.444.906,7.528,8.684,4.582,2.225-.818v-2.749l-6.971-5.8-3.437-7.942,2.727-1.32-2.018-4.375-4.036-.1-1.015-4.68-10.7-7.222-1.822-.305Z" transform="translate(31.677 28.554)" fill="#d5d5d5"/>
    <path id="estonia" d="M518.607,143.678l-6.109-.218-3.873,2.367-.054,1.756,2.509,2.367,7.8,1.32-.273-7.593Z" transform="translate(0.409 9.926)" fill="#d5d5d5"/>
    <path id="algeria" d="M477.789,227.615l-4.451-1.495-18.524,3.48-4.037,3.066,2.466,12.731-7.364.295-4.429,7.124L430.9,255.346l.033,5.182,34.746,26.564,5.924.5,19.757-15.437-1.975-2.487-3.709-.5-2.225-3.731V250l-1.484-1.495.251-3.982-3.949-3.982-.491-4.233,1.724-1.244-.742-4.484-.971-2.967Z" transform="translate(-6.655 17.444)" fill="#d5d5d5"/>
    <path id="morocco" d="M452.243,232.28h-12.6l-2.466,5.477-5.684,2.738-4.691,12.7-9.142,5.477-12.84,21.153,12.6-.251.491-6.218h3.207v-8.466h11.117l.251-10.953,10.626-2.487,4.451-7.222,6.917-.251-2.237-11.695Z" transform="translate(-9.026 18.004)" fill="#d5d5d5"/>
    <path id="mauretania" d="M404.9,278.279l2.378,3.109-.491,13.44,3.458-2.487,2.466-.5,3.458,1.244,3.949,5.476,3.709-2.487,18.033-.251L437.41,265.7l4.778-.022-8.9-6.818.011,4.429-11.269.011-.054,8.455-3.24-.011-.415,6.24-13.419.295Z" transform="translate(-9.019 20.421)" fill="#d5d5d5"/>
    <path id="senegal" d="M410.586,290.365l-4.3,3.12-.982,1.745L405,296.976l1.582,1.135,5.28-.076,3.393-.916.382,1.669-.306,2.2,3.24,1.593.676.764,4.3.153.153-1.9-3.927-4.713-4.375-5.924-2.716-1.135-2.095.535Z" transform="translate(-9.01 23.238)" fill="#d5d5d5"/>
    <path id="gambia" d="M406.9,298.436l-.142,1.211,7.549-.109.382-1.124-.164-1.135-2.171.884-5.455.273Z" transform="translate(-8.85 23.915)" fill="#d5d5d5"/>
    <path id="casamance" d="M406.79,300.22l1.353,3.284.753-2.029,9.175.96-3.971-2.04-7.309-.175Z" transform="translate(-8.847 24.182)" fill="#d5d5d5"/>
    <path id="bissau" d="M408.6,304.741l1.527,3.022,4.287-3.687.044-1.135-5.051-.731-.807,2.531Z" transform="translate(-8.683 24.363)" fill="#d5d5d5"/>
    <path id="guinee" d="M410.42,308.422l3.317,5.106,4.32-3.753,4.429-.2,3.687,4.9,3.131,2.062,1.178-2.291,1.047-.589-.076-5.04-2.084-5.978-6.393.709-7.909-.633-.044,2.029-4.6,3.676Z" transform="translate(-8.517 24.403)" fill="#d5d5d5"/>
    <path id="sierra_leone" data-name="sierra leone" d="M413.93,313.437l6.164,5.957,4.4-5.335-2.749-4.309-3.786.382-4.026,3.306Z" transform="translate(-8.198 25.049)" fill="#d5d5d5"/>
    <path id="liberia" d="M420.17,319.645l11.979,8.008-.284-6.066-3.622-4.266-3.535-3.131-4.538,5.455Z" transform="translate(-7.63 25.453)" fill="#d5d5d5"/>
    <path id="ivoire" d="M432.428,328.476l4.669-3.305,5.8-1.015,5.924,1.276-3.022-4.571-.884-2.793.884-8.258-5.291.251-2.4-2.291-5.04.131-2.4.382.251,5.586-1.265.513-1.516,2.793,3.906,4.571.382,6.731Z" transform="translate(-6.906 24.869)" fill="#d5d5d5"/>
    <path id="mali" d="M419.46,298.557l3.36-2.3,18.677-.109-4.32-30.045,4.931-.142,23.859,18.208,3.207.458-1.211,10.124-15,1.364-11.575,8.64-2.106,5.913-8.04.338-2.051-5.9-6.164.436.24-1.931-3.807-5.051Z" transform="translate(-7.695 21.067)" fill="#d5d5d5"/>
    <path id="burkina" d="M451.678,294.306l3.971-.316,6.513,9.208-6.044,4.56-4.375-1.124-5.88.076-.949,3.447-4.931.24-1.353-1.844,1.746-5.607,11.3-8.64Z" transform="translate(-5.952 23.616)" fill="#d5d5d5"/>
    <path id="niger" d="M461.393,305l2.782-.065,2.509-3.764,4.211-.753,4.484,2.738,9.568.273,7.4-3.011,2.782-2.389.207-3.142,5.16-5.2,1.364-11.488-3.393-7.113-8.684-2.116-20.1,15.666-2.847-.273-1.222,10.877-10.255,1.026L461.393,305Z" transform="translate(-4.43 21.34)" fill="#d5d5d5"/>
    <path id="ghana" d="M444.34,318.018l1.222,2.869,3.186,5,1.767-.065,4.822-2.738L455,307.491l-3.731-1.091-5.226.142-1.7,11.477Z" transform="translate(-5.432 24.744)" fill="#d5d5d5"/>
    <path id="togo" d="M455.242,322.59l2.924-1.713-.065-11.291-1.9-3.076-1.222,1.026.262,15.055Z" transform="translate(-4.465 24.754)" fill="#d5d5d5"/>
    <path id="benin" d="M458.874,321.012h2.313l.131-6.568,2.924-4.244-.131-7.386-2.651-.065-4.549,3.556,1.9,3.622.066,11.084Z" transform="translate(-4.289 24.413)" fill="#d5d5d5"/>
    <path id="nigeria" d="M461.57,321.274l4.277.207,5.16,5.749,2.509.687,1.964-.96,2.989-.415,1.015-4.167,4.069-2.673,4.407-.207,8.073-14.848L495.9,301.3l-3.731-2.869-7.462,3.284-9.982-.142-4.756-3.011-3.393.753-1.767,3.076-.131,8.684-2.847,4.037-.262,6.164Z" transform="translate(-3.865 24.02)" fill="#d5d5d5"/>
    <path id="tunisia" d="M474.928,227.533l6.033-2.433,1.985,1.287.076,1.571-.927,1.211.142,2.149.927.5v3.862l-1.069,1.789.142,1.145,4.047,1.429-3.262,5.073-1.276-.076-.218,4.08-1.418.218-1.211-1.069.284-4.146-3.971-3.862-.5-3.36,1.92-1.506-1.7-7.866Z" transform="translate(-2.671 17.351)" fill="#d5d5d5"/>
    <path id="libya" d="M480.054,248.858l1.7-.284.5-3.927h.851l3.48-5.717,8.586,2.5,2.346,3.644,8.444,3.862,4.4-1.855-.426-1.855-1.92-1.855.218-1.287,3.12-2.64h6.175l2.346,3.142,4.964.72.644,40.245-3.687-.142-22.277-11.586-2.411,1.364-9.153-2.291-2.487-3.284-3.622-.5L480,263.825l.055-14.968Z" transform="translate(-2.189 18.609)" fill="#d5d5d5"/>
    <path id="egypt" d="M521.93,243.149l2.913.076,5.673,1.571,2.694.076,3.338-2.793h1.56l2.836,1.571h3.589l.644-.044,2.269,6.524.644,2.106.6,3.153-1.069.785-1.844-.927-2.127-6.938-1.92-.142-.142,2.356,1.276,4.08,10.222,12.655.218,5.433-2.978,3.436-27.972-.316-.426-32.663Z" transform="translate(1.624 18.895)" fill="#d5d5d5"/>
    <path id="chad" d="M493.018,298.369l.142-3.218,5.171-5.029,1.385-12.349-3.447-6.589,2.411-1.233,23.346,12.164-.142,11.935-4.113,3.5V303.7l2.695,5.215H515.71l-7.877,7.789-.207,2.356-5.815-.076-.076,1.069-3.316-.436-2.269-4.288-1.7-.84.218-1.309,2.138-1.636v-7.658l-2.956-.458-3.567-2.651,2.738-2.411Z" transform="translate(-1.255 21.43)" fill="#d5d5d5"/>
    <path id="south_sudan" d="M551.7,311.116l-3.211-5.393-.337-3.922-.771.147-.208,1.208-4.209,6.147-3.358-1.6-3.349,2.806-6.93-.4-3.065-2.45-4.4,2.252-.166,1.5-1.342.809,13.44,13.832,7.321.416,1.067,1.625,10.475.186.085-2.346.895-1.625,3.493-.447-4.354-6.317h-3.206l-.818-4.485,2.574-1.133Z" transform="translate(1.48 24.326)" fill="#d5d5d5"/>
    <path id="sudan" d="M555.249,270.609l-4.024,4.059-28.147-.251.3,7.168-2.683-.076-.2,12.906-4.069,3.5-.164,5.388,2.936,5.794,3.217,1.9-.049.452,4.386-2.246,3.345,2.673,6.152.353,3.554-2.977,3.149,1.5,3.545-5.18.3-1.719,2.7-.514.42,4.878,2.7,4.538,6.55-14.086v-8.564l4.758-5.607Z" transform="translate(1.109 21.49)" fill="#d5d5d5"/>
    <path id="cameroon" d="M477.82,326.359l3.513,3.229-.251,5,19.266-.447,1.571-1.767-5.52-5.946-.818-2.149,3.513-6.578-2.389-4.364-2.007-1.08v-2.215l2.324-1.516.131-6.895-1.844-.207-.033,3.622-8.095,15.11-4.953.251-3.393,2.335-1.014,3.622Z" transform="translate(-2.388 24.292)" fill="#d5d5d5"/>
    <path id="eritrea" d="M556.733,295.656l-.273-6.426,4.32-5.04,1.167.895,2.127,7.113,10.211,7.6-1.855,2.28-7.473-6.426h-8.226Z" transform="translate(4.764 22.725)" fill="#d5d5d5"/>
    <path id="djibouti" d="M571.532,301.77l-.622,3.666,4.32-.065.065-5.389-1.582-.971-2.182,2.76Z" transform="translate(6.078 24.072)" fill="#d5d5d5"/>
    <path id="ethiopia" d="M549.693,313.233l7.942-17.673,7.888.044,6.993,6.077-.491,5.007h5.422L578,309.7l8.771,5.247,5.411.273L581.9,326.27l-14.128,4.353h-3.5l-6.24-5.324-2.466-1.036-4.778-7.037-3.153.044-.371-3.229,2.433-.807Z" transform="translate(3.927 23.759)" fill="#d5d5d5"/>
    <path id="somaliland" d="M575.74,305.109l4.451,3.033,1.32-.065,11.051-3.8,1.255,4.047-.884,3.415-2.389,1.9-5.967-.382-8.542-5.247-.295-2.9Z" transform="translate(6.517 24.552)" fill="#d5d5d5"/>
    <path id="soqotra" d="M599.62,299.74l2.324,2.6,3.142-1.9,1.135-.382-1.44-1.4-2.76.818-2.4.262Z" transform="translate(8.689 24.041)" fill="#d5d5d5"/>
    <path id="somalia" d="M594.043,304.2l4.767-1.833,1.691,1.015-.185,4.233-4.4,12.524-23.793,25.484-2.76-1.9-.185-10.757,3.578-4.113,7.593-2.345,11.139-11.76,2.913-2.6.818-3.8-1.178-4.156Z" transform="translate(5.921 24.378)" fill="#d5d5d5"/>
    <path id="centrafrique" d="M495.718,325.641l5.084,5.5,2.007-2.6,3.2.131.687-2.531,3.142-1.964,6.524,4.495,3.764-3.731,14.608.644L521.181,311.6,523,310.466l.251-2.466-3.076-1.451H515.66l-7.276,7.211-.251,2.967-5.771-.186-.185,1.266-3.764-.382-3.393,6.448.7,1.767Z" transform="translate(-0.823 24.758)" fill="#d5d5d5"/>
    <path id="sao_tome" data-name="sao tome" d="M470.74,337.2l1.255-.633.938.764-.938,1.451-1.135-.447-.12-1.135Z" transform="translate(-3.031 27.488)" fill="#d5d5d5"/>
    <path id="principe" d="M473.05,333.526l1.887-.316.633,1.2-.938,1.015-.938-.131-.644-1.767Z" transform="translate(-2.822 27.183)" fill="#d5d5d5"/>
    <path id="bioko" d="M476.882,327.437l-.5,2.149,1.506.818,1.44-1.08-.5-2.215-1.942.327Z" transform="translate(-2.519 26.628)" fill="#d5d5d5"/>
    <path id="gabon" d="M487.228,332.64l-.131,2.716-6.153-.131L477.18,342.5l8.848,9.677,2.193-1.833-.065-1.9-1.506-.7v-1.331l3.393-2.149,3.011,2.28,3.327.065-.066-11.444-5.269-.251-.065-2.4-3.753.12Z" transform="translate(-2.446 27.12)" fill="#d5d5d5"/>
    <path id="equatorial_guinea" data-name="equatorial guinea" d="M481,332.69l-.065,1.516,4.953.251-.065-1.713L481,332.69Z" transform="translate(-2.105 27.135)" fill="#d5d5d5"/>
    <path id="congo" d="M491.5,332.948l-.065,1.582,5.215.131.185,13.539-4.767-.131-2.76-2.149-2.138,1.2-.1.6,1.1.535.316,2.782-2.946,2.531.633,1.331,3.262-2.531h1.571l.5,1.516,2.073.884,6.655-5.629-.131-4.113,1.386-3.349,4.266-3.164,1.145-10.7-3.033.011-3.513,4.811-8.858.316Z" transform="translate(-1.685 26.691)" fill="#d5d5d5"/>
    <path id="cabinda" d="M486.55,353.423l1.9,2.466,2.455-2.324-.72-2.411-.611-.044-3.022,2.313Z" transform="translate(-1.594 28.81)" fill="#d5d5d5"/>
    <path id="drc" d="M489.38,358.61l11.248-.2,2.28,3.24-.087,2.389.84.764h5.586l1.6-3.153h2.28l.927.938,3.131-.087.927,11,5.411.175v.851l14.542,6.557.676,1.276h3.044l-.338-4.6-5.5-2.64.338-3.491,2.367-5.542,5.411-.175-4.648-15.426.087-6.557,7.353-11.5.087-1.615-1.1-.6.043-3.12-1.342-.12-1.353-1.724-22.2-1-4.069,3.96-6.666-4.386-2.345,1.44-1.7,14.324L502,342.835l-1.266,2.88.229,4.266-7.593,6.207-2.018-.916.273,1.189-2.247,2.149Z" transform="translate(-1.336 26.329)" fill="#d5d5d5"/>
    <path id="rwanda" d="M537.972,339.9l3.065,2.826-.131,3.022-4.756.1v-3.338l1.822-2.607Z" transform="translate(2.917 27.791)" fill="#d5d5d5"/>
    <path id="burundi" d="M536.226,346.218l4.658-.1-1.211,4.08-1.178,1.025h-1.44l-1.026-2.76.2-2.247Z" transform="translate(2.906 28.357)" fill="#d5d5d5"/>
    <path id="uganda" d="M538.3,340.2l3.306,3.1,2.073-1.32,5.607-.916.96.1.36-2.127,3.164-6.655-2.662-5.542-8.629.055-.055,2.28,1.156,1.113-.175,2.28L538.3,340.2Z" transform="translate(3.112 26.603)" fill="#d5d5d5"/>
    <path id="kenya" d="M550.916,326.86l2.9,5.662-3.48,7.3-.458,2.215,17.379,10.746,5.389-8.466-2.727-2.215-.054-11.149,3.415-3.731-5.444,1.811-4.113.054-6.437-5.433-2.029-.873-3.764.349-.665,1.113.087,2.618Z" transform="translate(4.166 26.234)" fill="#d5d5d5"/>
    <path id="tanzania" d="M551.783,374.234l19.059-2.335-4.287-8.291-.229-7.942,1.385-3.8L549.579,340.48l-5.684.938-1.975,1.462-.174,3.327-1.276,4.615-1.331,1.582-1.909.175,3.655,12.666,5.968,2.8,4.113.12.818,6.066Z" transform="translate(3.015 27.844)" fill="#d5d5d5"/>
    <path id="zambia" d="M514.55,386.663l3.458,4.8,5.356.327,1.9,1.047,5.608.065,4.833-6.775,13.506-6.044,1.178-5.324-1.571-7.626-7.047-4.015-4.7.327-2.346,5.193.066,2.367,5.542,2.695.327,5.858-4.767.262-1.178-1.975L521.466,372.2l-.393,4.342-6.262.2-.262,9.928Z" transform="translate(0.953 29.903)" fill="#d5d5d5"/>
    <path id="angola" d="M488.839,356.725l3.72,13.888L492.472,375l-5.444,5.847-.818,9.5,20.946.185L513.964,393l5.618-.731-3.273-4.1.011-11.717,6.437-.273v-4.571l-5.226-.218-1.047-10.822-2.2.033-1.189-1.069-1.3.065-1.724,3.338h-6.633l-1.538-1.549.458-2.193-1.811-2.651-11.706.185Z" transform="translate(-1.625 29.304)" fill="#d5d5d5"/>
    <path id="malawi" d="M547.186,380.558l3.393,3.546-.066,4.538.655,1.909,4.505-4.866-.524-6.186-2.411-1.844L550.59,366.8l-3.72-.131,1.691,7.822-1.375,6.066Z" transform="translate(3.892 30.225)" fill="#d5d5d5"/>
    <path id="mozambique" d="M541.42,417.206l2.935,2.433,6.917-4.211,1.113-6.251v-10.32l11.095-9.077,1.9.065,6.72-6.447L571.05,370.11l-17.815,2.247.523,4.015,3.066,2.367.72,7.233-6,5.858-1.44-3.284.262-4.342-3.458-3.753L538.42,384.4l7.9,4.015.262,11.706-5.226,7.757.065,9.328Z" transform="translate(3.123 30.538)" fill="#d5d5d5"/>
    <path id="zimbabwe" d="M524.676,393.1l9.786,11.051,7.506,1.909L547,398.172l-.393-10.451-8.16-4.211-3.065,1.386-4.571,6.971-6.327-.065.2,1.3Z" transform="translate(1.856 31.757)" fill="#d5d5d5"/>
    <path id="namibia" d="M497.5,425.013l3.655.262,2.149,2.171,5.095.066,1.244-14.466v-9.469l3.262-.655,1.244-9.928,8.291-.262,2.935-2.433-4.964-.2-6.72.916-7.244-2.629H486.09l.524,5.782,6.786,9.993-1.178,5.128.065,2.695,5.215,13.026Z" transform="translate(-1.636 32.201)" fill="#d5d5d5"/>
    <path id="botswana" d="M508.51,413.111l2.345.72-.327,6.709,2.411.327,5.542-5,6.655.72,1.767-4.473,8.422-7.691-10.113-11.64-.131-1.909-1.113-.327-3.066,2.826-7.964.2-1.113,9.928-3.131.72-.185,8.891Z" transform="translate(0.403 32.397)" fill="#d5d5d5"/>
    <path id="swaziland" d="M541.2,414l-2.738.458-1.178,3.218,2.095,1.909h2.542l2.149-3.087L541.2,414Z" transform="translate(3.02 34.53)" fill="#d5d5d5"/>
    <path id="lesotho" d="M527.491,425.6l3.327-2.564,1.571.065,1.9,2.367-.2,2.367-3.2,1.178v.916l-3.524-.2-.851-2.564.971-1.571Z" transform="translate(2.041 35.352)" fill="#d5d5d5"/>
    <path id="south_africa" data-name="south africa" d="M537.545,403.63l-8.619,7.964-2.051,4.92-6.829-.851-5.684,5.051-3.775-.371.305-6.982-1.342-.469-.938,14.28-6.7-.065-2.018-2.378-2.956-.033,2.695,7.735,4.811,4.549-3.437,4L503.235,446l5.149,1.964,4.1-3.491,11.75.065.84-1.047,5.215-.916,17.641-17.564-.066-5.531-1.887,2.444h-2.826l-3.436-2.88,1.745-4.342,3-.611-.273-8.924-6.644-1.538Zm-4.135,20.182,1.647-.065,2.673,2.9-.076,3.36-3.131,1.582-.2,1.113-4.778.055-1.495-3.6,1.364-2.64,3.993-2.706Z" transform="translate(-0.649 33.587)" fill="#d5d5d5"/>
    <path id="greenland" d="M321.254,52.072l-1.484,2.367,2.673,2.673-1.189,2.673,3.862,5.04,4.746-1.484,6.229-.589,7.124,7.713,4.746,12.753-3.851,8.008,5.335-.895,2.967,1.778.294,3.862-6.524.295,3.556,3.556,4.451.895L344.4,113.764l-1.189,8.008,2.073,6.524-1.484,3.862,2.673,8.3,5.04,5.64,1.484-.295,3.262-.895.294,4.746,2.073,2.967,3.851-.295,2.967-10.975,8.9-10.975,13.353-5.335,8.3-10.386,3.851,1.778h8.008l6.524-6.524,8.008-3.262.895-5.04-5.04-4.451L413.8,95.677l-2.378-6.229,5.64-3.262,8.9,4.746,2.967-3.262L424.184,85l10.091-13.648L432.5,65.414l-4.746-.295,1.778-5.335,5.935-2.673,12.164-10.68-3.556-3.851L430.424,43.77,423.3,50.893l4.156-9.2-4.746-1.189-2.673,4.746-3.851-3.262-10.68,1.189,2.967-4.746,17.5-.589-4.451-5.935L402.54,28.355l-7.713,1.189.295,3.862-8.008-2.673.295-2.673-5.64,1.189-1.189,2.967,5.935,2.073-6.229,4.451-4.451-5.04L369.6,31.922l-.895,4.746H362.48l-2.378-5.04-9.786-1.484-5.335,2.673-.295,3.556-6.818-.895-4.157,1.778.295,4.156v2.073l-7.713,1.484L322.737,42.6l-2.378,3.851,3.556,3.862,7.418-.895.589,2.378-5.64,2.673-5.029-2.4Z" transform="translate(-16.761 -0.568)" fill="#d5d5d5"/>
    <path id="disko" d="M343.163,92.49l1.778,2.673-.895,3.262h-1.778l-2.378-2.673.589-2.073,2.684-1.189Z" transform="translate(-14.931 5.291)" fill="#d5d5d5"/>
    <path id="milne" d="M411.018,85.69l5.04,1.484-.294,4.156-5.335-2.673-1.189-1.484,1.778-1.484Z" transform="translate(-8.624 4.673)" fill="#d5d5d5"/>
    <path id="australia" d="M761.588,432.242l-.382,27.688-4.255,3.12-.382,2.728,5.8,3.895,14.324-2.727h7.353l2.705-3.905,16.255-3.12,11.608,3.513-.775,4.68,1.549,4.68,8.9-1.56.382,2.334-5.8,4.288,1.931,1.56,4.255-1.56L823.9,490.727l8.128,6.24,4.647-1.56L839,497.742l13.549-1.953,12.775-20.673,4.648-1.167,9.284-17.161,2.323-14.815-5.8-7.407,2.324-1.56-4.648-14.433-5.029-3.513.775-19.5-4.648-3.513-1.156-10.92h-2.324l-7.746,25.735-4.255.393-9.677-9.753,5.422-14.433-10.058-1.953-11.226,3.12-3.1,8.968-5.029,1.167-.382-6.24-20.51,12.48.382,4.68-3.1,4.287h-7.746L767.4,416.6l-5.815,15.644Z" transform="translate(22.963 31.54)" fill="#d5d5d5"/>
    <path id="tasmania" d="M825.9,496.26l-1.931,7.8.382,5.455,5.8-.393,6.578-10.135L825.9,496.26Z" transform="translate(29.092 42.011)" fill="#d5d5d5"/>
    <path id="sumatra" d="M722.505,317.57l-.306,2.487,7.408,12.448h2.16L747.2,358.327l6.175.622,3.088-9.022-4.942-3.109-.927-4.975L722.505,317.57Z" transform="translate(19.837 25.76)" fill="#d5d5d5"/>
    <path id="east_malaysia" data-name="east malaysia" d="M764.14,334.744l3.295,3.807,12.633-4.375,2.5-9.644,5.63-.4,5.149-3.731-6.677-4.866-1.527-2.673-3.295,6.077,1.211,3.491-2.007,2.913-3.786-.971-9.175,6.731.24,3.895-4.189-.251Z" transform="translate(23.651 25.332)" fill="#d5d5d5"/>
    <path id="brunei" d="M780.032,319.25l-3.142,3.807,2.575.807,1.451-2.029-.884-2.586Z" transform="translate(24.81 25.913)" fill="#d5d5d5"/>
    <path id="sulawesi" d="M789.53,350.705,792,353.727l-1.6,4.538v.862h3.644l1.287-11.346,1.179.327,2.138,10.364,2.04.545,1.931-4.429-1.931-6.7-1.6-2.913,5.04-3.676-1.178-1.626-4.822,3.131h-1.287l-2.356-3.458.753-1.516,3.971-1.942,6,1.833,1.822-.109,4.505-4.211L809.7,331.57l-4.178,3.24H802.84l-4.069-1.942-2.891.109-3.218,5.182-2.04,8.968-1.091,3.578Z" transform="translate(25.96 27.033)" fill="#d5d5d5"/>
    <path id="maluku" d="M814.36,330.5l-2.04,4.964,3.218,4.211h1.069l1.4-2.8.753-.971-1.4-1.516-2.04-.753-.96-3.131Z" transform="translate(28.032 26.936)" fill="#d5d5d5"/>
    <path id="seram" d="M820.464,345.45l-4.4.971-1.287,1.407,1.069,1.833,2.891-1.08,1.822-1.08,2.684,2.16,1.178-.971-2.139-2.6-1.822-.644Z" transform="translate(28.256 28.296)" fill="#d5d5d5"/>
    <path id="java" d="M753.42,358.32l-3,2.051.644,1.724,9.546,2.16,4.822.862,2.04,2.16,5.466.436,2.575,2.16,2.357-.546,2.149-1.942-3.971-1.833-3.425-2.913-8.9-2.16-10.3-2.16Z" transform="translate(22.403 29.466)" fill="#d5d5d5"/>
    <path id="bali" d="M781.966,366.93l-2.356,1.3,1.4,1.516,3.426-1.3-2.466-1.516Z" transform="translate(25.058 30.249)" fill="#d5d5d5"/>
    <path id="lombok" d="M785.5,366.05l.426,2.051,2.465.644.96-1.189-1.069-1.626-2.782.12Z" transform="translate(25.593 30.158)" fill="#d5d5d5"/>
    <path id="sumba" d="M791.16,370.99l-3,.436,2.683,2.269h2.138l-1.822-2.706Z" transform="translate(25.835 30.618)" fill="#d5d5d5"/>
    <path id="flores" d="M791.744,367.792l-.644,1.3,4.822.753,3.753-2.16-2.138-.644-3.426.971-1.287-1.08-1.08.862Z" transform="translate(26.103 30.249)" fill="#d5d5d5"/>
    <path id="timor" d="M806.6,368.42l-5.575,4.647.535,1.189,2.356-.436,2.782-2.6,5.466-.753-1.069-1.833-4.495-.218Z" transform="translate(27.006 30.385)" fill="#d5d5d5"/>
    <path id="new_britain" data-name="new britain" d="M883.692,355.03l-1.036.24-.633,2.8-1.985,1.287-5.967,1.047.24,2.247,6.284-.316,3.982-2.487-.24-4.331-.644-.491Z" transform="translate(33.648 29.167)" fill="#d5d5d5"/>
    <path id="palawan" d="M789.927,297.53l-.938,1.789-.524,2.2-5.215,6.622.316,1.364,2.193-.316,6.775-7.571-2.607-4.091Z" transform="translate(25.389 23.938)" fill="#d5d5d5"/>
    <path id="negros" d="M797.119,295.22l-.109,5.466,1.985,2,.731,3.884,1.986.425.938-2.422-1.56-1.156-.415-6.829-3.557-1.364Z" transform="translate(26.64 23.728)" fill="#d5d5d5"/>
    <path id="cebu" d="M802.289,297.15l-.109,4.833,1.146,1.887,1.986-2.313-.524-4.2-2.5-.207Z" transform="translate(27.11 23.903)" fill="#d5d5d5"/>
    <path id="samar" d="M803.42,293.334l1.986,2.629.938,2.52h1.778l-.316-4.309-1.985-1.364-2.4.524Z" transform="translate(27.223 23.509)" fill="#d5d5d5"/>
    <path id="path7462" d="M807.751,302.35l.415,3.153-3.655,2.946-3.022.316-3.229,3.469.109,1.582,3.022-.949,2.084-1.364,1.778,4.516,3.131,2.2,1.255-.425,1.146-1.364-2.5-2.52,1.462-1.156,1.669,1.364,1.146-1.887-1.146-2.313-.207-5.149-3.458-2.422Z" transform="translate(26.754 24.376)" fill="#d5d5d5"/>
    <path id="luzon" d="M791.641,272.97l-2.815,2-.316,6.306,4.386,8.509,1.462,1.156,1.876-1.265,3.229.524.622,2.836,2.4.207,1.146-1.571-1.462-2-1.778-1.68-3.753-.415-1.986-3.262,2.291-3.469.207-3.044-1.56-3.884-3.949-.949Z" transform="translate(25.867 21.704)" fill="#d5d5d5"/>
    <path id="mindoro" d="M792.72,290.21l.829,2.946,1.462.949,1.047-1.364-1.669-2.313-1.669-.218Z" transform="translate(26.25 23.272)" fill="#d5d5d5"/>
    <path id="hainan" d="M760.2,270.17l-2.607.731-1.876,2.313,1.56,3.044,2.291.207,2.607-2.313.622-3.044-2.6-.938Z" transform="translate(22.885 21.45)" fill="#d5d5d5"/>
    <path id="taiwan" d="M787.8,248.31l-3.862,2.946-.207,5.673,3.338,3.884.829-.731-.1-11.771Z" transform="translate(25.432 19.462)" fill="#d5d5d5"/>
    <path id="kyushu" d="M803.378,216.42l-1.778,1.789.731,2.52,1.56.109,1.047,5.466,1.255,1.364,2.193-2,.938-3.578-2.716-3.884-3.229-1.789Z" transform="translate(27.058 16.562)" fill="#d5d5d5"/>
    <path id="shikoku" d="M812.291,213.15l-3.022,2.836-.109,3.262.731.949,4.069-3.469-.316-3.469-1.353-.109Z" transform="translate(27.745 16.264)" fill="#d5d5d5"/>
    <path id="honshu" d="M808.644,209.127l-5.324,6.1.938,1.473,2.608.316,4.9-3.786,3.447-.633,3.131,3.676,2.4-.84.938-3.578,4.484-.109,4.386-5.258-2.291-8.728-1.047-4.626,2.291-1.887-5.215-7.877-1.353.109-2.815,3.153v2.629l1.255,1.473.414,6.938-3.229,3.993-1.876-1.156-1.462,3.262-.316,3.044,1.145,1.789-.731,1.364-2.4-2h-1.669l-1.462.84-1.145.316Z" transform="translate(27.214 13.556)" fill="#d5d5d5"/>
    <path id="hokkaido" d="M816.665,163.44,815,164.913l.84,3.153,1.462,1.473-.109,4.833-1.876.731-1.462,3.262,4.277,5.88,2.815-.949.524-1.473-3.022-2.727,1.876-2.422,1.985.316,1.56,1.68.109-3.469,4.277-3.469,2.4-.633-1.985-3.36-.938-1.473-1.56,1.047-1.353,1.68-2.924-.633-3.022-2-2.2-2.924Z" transform="translate(28.172 11.743)" fill="#d5d5d5"/>
    <path id="iturup" d="M831.1,160.45l-2.924,4.1.208,2,1.462-.633,3.437-4.309L831.1,160.45Z" transform="translate(29.475 11.471)" fill="#d5d5d5"/>
    <path id="urup" d="M834.487,155.047l-1.047,2.836.109,1.887,1.778-1.156,1.669-3.36V154l-2.509,1.047Z" transform="translate(29.953 10.885)" fill="#d5d5d5"/>
    <path id="paramushir" d="M840.153,132.03l-1.353,1.68.109,2.629,1.255-.109,2.083-3.676-2.094-.524Z" transform="translate(30.44 8.887)" fill="#d5d5d5"/>
    <path id="onekotan" d="M837.75,137.918v4.626l1.462.524,1.047-1.68V137.82l-2.509.1Z" transform="translate(30.345 9.413)" fill="#d5d5d5"/>
    <path id="sakhalin" d="M798.648,122.59l-.1,6.731,8.444,13.037,3.022,11.346,5.324,10.091,2.084.731,1.778-1.473.829-2.422-7.615-8.3.208-4.309,1.669-.731.415-2.52-14.913-21.121-1.145-1.058Z" transform="translate(26.78 8.028)" fill="#d5d5d5"/>
    <path id="st._lawrence_island" data-name="st. lawrence island" d="M881.555,38.39l-2.575,1.68-.611,2.138,1.211,1.375,2.727-.916,2.727.916,1.516.458L886.4,39l-4.844-.611Z" transform="translate(34.039 0.371)" fill="#d5d5d5"/>
    <path id="unalaska_west" data-name="unalaska west" d="M49.675,110.26l-.185,3.284L51.846,113v-1.462l-2.171-1.276Z" transform="translate(-41.341 6.907)" fill="#d5d5d5"/>
    <path id="umnak_west" data-name="umnak west" d="M46.733,111.6l-4.713,2.378.731,2.553,1.811-1.462,3.622-1.647L46.733,111.6Z" transform="translate(-42.02 7.029)" fill="#d5d5d5"/>
    <path id="madagascar" d="M593.974,372.948l-2.324,5.52-3.982,7.026-6.971.5-2.989,3.513.5,10.713-4.32,5.018.5,8.531,3.655,4.178,4.32-.5,4.32-3.186-.993-5.018,9.96-17.237-2-2.171,2-4.178,2.16.665.666-1.669-2-8.531-1.167-3.513-1.342.338Z" transform="translate(6.349 30.766)" fill="#d5d5d5"/>
    <path id="guadeloupe" d="M276.736,283.37l-1.636.676.578,1.451,1.92-1.255-.382-.393-.48-.48Z" transform="translate(-20.823 22.65)" fill="#d5d5d5"/>
    <path id="dominica" d="M279.15,284.88l-.96,2.04,1.156,1.549,1.44-1.255-1.637-2.335Z" transform="translate(-20.542 22.787)" fill="#d5d5d5"/>
    <path id="martinique" d="M282.167,290.03,281.01,291.1l.862,1.746,1.636-.48-1.342-2.335Z" transform="translate(-20.286 23.256)" fill="#d5d5d5"/>
    <path id="st._lucia" data-name="st. lucia" d="M282.044,294.03l-.774,1.647,1.255,1.353,1.636-.873-2.117-2.127Z" transform="translate(-20.262 23.62)" fill="#d5d5d5"/>
    <path id="st._vincent" data-name="st. vincent" d="M282.182,297.85l-1.342.971,1.058,1.942,1.735-.971-1.451-1.942Z" transform="translate(-20.301 23.967)" fill="#d5d5d5"/>
    <path id="grenada" d="M280.675,301.31l-1.255,1.255.48.775h1.538l.48-1.265-1.244-.764Z" transform="translate(-20.43 24.282)" fill="#d5d5d5"/>
    <path id="trinidad" d="M282.441,304.78l-1.156,1.069-1.255.2v1.549l2.313,2.127.96-1.549.578-1.746-.2-1.451-1.244-.2Z" transform="translate(-20.375 24.597)" fill="#d5d5d5"/>
    <path id="puerto_rico" data-name="puerto rico" d="M271.483,281.141l-2.88-.971-2.313,1.451,1.156,1.353,3.938.578.1-2.411Z" transform="translate(-21.625 22.359)" fill="#d5d5d5"/>
    <path id="haiti-dominican_border" data-name="haiti-dominican border" d="M251.207,275.38l-1.822,1.866,2.084.851.305,2.607-4.615.4.469,2.509,1.342.1.775-1.156,5.389.175.971,1.866,1.244-1.462,3.633-.982,3.2.676.371-1.931-5.76-3.764-3.731-1.4-3.851-.36Z" transform="translate(-23.364 21.923)" fill="#d5d5d5"/>
    <path id="domincan_republic" data-name="domincan republic" d="M263.895,280.832l-5.771-3.775-2.727-.927-.916,6.546.96,1.844,1.255-1.451,3.655-.971,3.175.676.371-1.942Z" transform="translate(-22.699 21.992)" fill="#d5d5d5"/>
    <path id="haiti" d="M251.2,275.38l3.753.393-.447,4.6-.371,2.422-4.375-.24-.775,1.167-1.342-.1-.48-2.52,4.615-.382-.284-2.618-2.116-.873,1.822-1.855Z" transform="translate(-23.364 21.923)" fill="#d5d5d5"/>
    <path id="iceland" d="M406.985,117.411l-2.138-1.211-2.88,1.822-2.476,2.291.066,1.276,3.207.4-.2,2.291-1.135,1.146.273.742,3.207.207v3.709l4.615.807,2.738,1.549,3.077.131,5.28-2.629,4.08-5.389.065-3.644-2.476-2.095-2.073-1.756-.938.676-1.407,1.822-1.6-.207-1.6-1.756-2.073.2-3.011,2.5-1.811,1.953-1-.873-.066-2.16,1-.676-.72-1.124Z" transform="translate(-9.511 7.447)" fill="#d5d5d5"/>
    <path id="spitsbergen" d="M489.45,54.111l-1.8-1.811-3.993,1.942h-7.331l-1.156,4.277,4.113,3.633,1.8-.262,2.575-4.407,2.182,1.56-1.549,3.109-.775,4.538,1.8,2.847,3.862-6.48,5.018-6.1-1.931-1.68-2.815-1.167Z" transform="translate(-2.629 1.636)" fill="#d5d5d5"/>
    <path id="nordaustlandet" d="M490.528,46.84l-3.218,2.978,1.931,2.978h3.469l1.418,1.942,4.244,2.2,4.887-2.847,3.349-2.847-1.156-2.335L502.1,46.971l-2.444,2.2L497.99,47.1l-1.287.131-1.669,3.633L492.59,48.4l-.262-1.68-1.8.12Z" transform="translate(-1.524 1.129)" fill="#d5d5d5"/>
    <path id="edgeoya" d="M497.376,59.07,494.8,61.4l-2.182,1.68,1.026,1.811,2.062.644,3.349-1.56,1.549-1.942L499.188,59.7l-1.811-.633Z" transform="translate(-1.042 2.252)" fill="#d5d5d5"/>
    <path id="prince_george" data-name="prince george" d="M548.4,38.79l1.876.753-1.32,2.269V45.03l-2.815,1.7h-3l-1.691-2.084.185-2.269,1.32-1.7h2.629L548.4,38.79Z" transform="translate(3.399 0.408)" fill="#d5d5d5"/>
    <path id="salisbury" d="M554.36,36.959v2.269l1.876,1.516,2.629-.185,2.258-2.084V36.959h-2.062l-1.691.567-1.32-1.516-1.691.949Z" transform="translate(4.573 0.155)" fill="#d5d5d5"/>
    <path id="wilczek" d="M564.18,37.139l1.32,2.836,2.629.185,1.877-.753-.938-2.651-2.444-.567-2.444.949Z" transform="translate(5.466 0.171)" fill="#d5d5d5"/>
    <path id="bell" d="M574.318,33.622l-2.062-.382-1.876,1.9.938,1.7.567,2.651,2.444-1.887.567-2.084-.578-1.9Z" transform="translate(6.03 -0.097)" fill="#d5d5d5"/>
    <path id="novaya_zemlya_north" data-name="novaya zemlya north" d="M586.4,51.98l-.567,2.651-4.32,3.786L572.307,60.5,564.79,72.992l-1.32,3.6,7.517,1.9,1.124-4.538,2.258-7,5.826-3.033,4.887-3.786,3.568-1.516h1.876V53.507L586.4,51.98Z" transform="translate(5.402 1.607)" fill="#d5d5d5"/>
    <path id="novaya_zemlya_south" data-name="novaya zemlya south" d="M562.546,77.31l5.073.567,1.691,5.869,4.32,4.538-1.505,3.033H569.5l-2.444-2.836-5.444-.185-2.258-3.033V83.179l3.382-.949-.186-4.92Z" transform="translate(5.027 3.911)" fill="#d5d5d5"/>
    <path id="komsomolets" d="M635.9,18.276l-2.444-1.516h-2.815l-.567,1.7-3,1.7-2.258.753-.371,2.269,5.258.382,6.2-5.291Z" transform="translate(10.947 -1.596)" fill="#d5d5d5"/>
    <path id="october" d="M641.047,18.67l-1.32,2.836-2.629-.185-4.134,3.033-1.124,3.786h2.629l1.505-2.466,3.568,2.651,3.382-1.516,2.444-2.084-.938-3.218-1.32-2.269-2.062-.567Z" transform="translate(11.619 -1.422)" fill="#d5d5d5"/>
    <path id="bolshevik" d="M645.28,20.58l1.32,5.3,2.062,4.92,2.258-3.971,4.32-.949V23.046l-2.815-2.084-7.146-.382Z" transform="translate(12.841 -1.249)" fill="#d5d5d5"/>
    <path id="kotelny" d="M741.055,13.2l2.935,2.466,2.084-.862.611-3.458L742.408,8.39l-2.814,1.855-6.851.622v3.087l-7.222.12v5.051l8.444,6.284,2.2-1.6-.491-4.44,5.389-1.353-1.1-2.095-1.953-1.975,3.044-.742Z" transform="translate(20.138 -2.357)" fill="#d5d5d5"/>
    <path id="novaya_sibir" data-name="novaya sibir" d="M746.94,10.347l1.953,3.7,7.593-.862,2.084-2.716-.491-2.346-2.084-.862-1.953,1.484-5.629,1.233-1.473.371Z" transform="translate(22.087 -2.46)" fill="#d5d5d5"/>
    <path id="lyakhovsky" d="M747.071,23.392l-3.8-.982-2.193,2.346-.982,3.207,5.138-.491,3.917-1.975-2.084-2.106Z" transform="translate(21.465 -1.082)" fill="#d5d5d5"/>
    <path id="wrangel" d="M837.4,3.842l-3.186-.982-3.666,1.353L828.72,6.929l2.324,3.087,6.12-2.716,1.222-1.353L837.4,3.842Z" transform="translate(29.524 -2.86)" fill="#d5d5d5"/>
    <path id="sri_lanka" data-name="sri lanka" d="M680.628,308.115l.273,2.967.273,2.16-1.6.273.807,4.855,2.411,1.353,3.742-2.16-1.069-5.117.273-1.887-3.48-3.229-1.626.785Z" transform="translate(15.96 24.829)" fill="#d5d5d5"/>
    <path id="cuba" d="M220.85,267.132v1.385l5.8.109,2.738-1.593.425,1.167,5.695,1.386,5.062,4.571-1.156,1.593.207,1.811,4.222,1.058,4.222-1.909,1.9-1.909-2.738-1.386L233.1,265.125l-4.953-.535-7.3,2.542Z" transform="translate(-25.757 20.942)" fill="#d5d5d5"/>
    <path id="bimini" d="M239.734,259.165l-1.375-.425-.109,2.651,1.691,1.7,1.156-1.7-1.364-2.226Z" transform="translate(-24.175 20.41)" fill="#d5d5d5"/>
    <path id="andros" d="M242.278,262.93l-1.9,1.058,1.789,2.553.949-1.276-.84-2.335Z" transform="translate(-23.981 20.791)" fill="#d5d5d5"/>
    <path id="inagua" d="M247.9,264.689l-2.007-.109.207,1.276,1.473,2.127,1.266-1.386-.938-1.909Z" transform="translate(-23.48 20.941)" fill="#d5d5d5"/>
    <path id="eleuthera" d="M247.186,262.785l-3.273-1.386-.633-3.295,1.266-.535,1.265,2.553,1.266.96.109,1.7Z" transform="translate(-23.717 20.304)" fill="#d5d5d5"/>
    <path id="grand_bahama" data-name="grand bahama" d="M244.277,256.573l-1.691-.425-.316-2.127-1.789-.633,1.156-1.167,2.105.742,1.582.96-1.047,2.651Z" transform="translate(-23.972 19.817)" fill="#d5d5d5"/>
    <path id="jamaica" d="M239.246,279.59l-3.8.96v1.058l2.215,1.276h2.324l1.473-1.7-2.215-1.593Z" transform="translate(-24.429 22.306)" fill="#d5d5d5"/>
    <path id="irian_jaya" data-name="irian jaya" d="M832.553,339.34l-4.549.513-2.924,2.138,1.211,2.444,4.953.916v.916l-3.131,2.542,1.516,5.291,1.516.1,1.309-5.193h2.422l1.014,5.084,11.815,9.775.305,7.637,4.036,4.375,1.822-.1.4-26.968-6.862-4.778-6.469,4.375-2.324,1.429-3.84-2.444-.1-7.735-2.127-.316Z" transform="translate(29.193 27.74)" fill="#d5d5d5"/>
    <path id="alaska-westcopy" d="M96.545,46.588l-9.153,2.171,1.887,10.309,9.96,2.716.535,2.171L84.97,68.57,76.624,82.4l2.956,14.651,4.844,3.251L88.2,96.782l1.08,2.171L84.7,104.375l-17.771,8.138L55.613,115.23,55.34,119.3l26.117-7.593,10.768-2.989,9.96-12.208,11.04-7.32-5.651,9.491,6.2.818,10.506-4.615,1.887,7.593,7.266,1.626,7.538,7.32.535,5.422-1.08,1.353,1.342,5.149h1.887l.273-8.684h2.149l.535,21.426L152,131.474l-3.775-22.244h-5.651l-6.2-7.866L166.8,49.817l-30.154-23.6-33.656,6.513L101.65,43.042l7.266,4.342-2.695,7.058-9.677-7.855Z" transform="translate(-40.809 -0.736)" fill="#d5d5d5"/>
    <path id="banks" d="M204.436,35.932l.24,4.386L195.97,49.34l2.182,7.309,6.284-1.7,3.633-5.367,9.186-3.415,7.495-.491-5.8-6.338-2.9,2.193-2.182-.731-1.211-2.684-2.662-2.684-5.553.5Z" transform="translate(-28.02 0.102)" fill="#d5d5d5"/>
    <path id="prince_patrick" data-name="prince patrick" d="M214.311,24.313l-1.931,3.415,9.437,3.415,3.382-5.117,1.451,3.415h2.422l4.593-5.117L228.1,22.862l-2.182-1.7-2.9,2.924-8.706.229Z" transform="translate(-26.527 -1.196)" fill="#d5d5d5"/>
    <path id="eglinton" d="M229.855,30.31l-7.495,3.164v2.433l9.677,3.655-2.182,2.433,1.451,3.164,6.044-2.684h5.084l2.422,3.895,4.113-4.146L248,38.318l-3.382,1.222-.48-4.877,1.691-2.924h-1.691l-2.662,1.7-1.211.971.731,3.415-1.931,1.462-2.9-.24-.731-4.386-5.575-4.353Z" transform="translate(-25.62 -0.364)" fill="#d5d5d5"/>
    <path id="mackenzie_king" data-name="mackenzie king" d="M238.381,23.38l-.731,2.433,4.593,2.193,3.382-1.953-.24-1.462-7-1.211Z" transform="translate(-24.229 -0.994)" fill="#d5d5d5"/>
    <path id="king_christian" data-name="king christian" d="M241.922,19.58,238.54,20.8l.24,1.7,7.495-.491-.24-1.7-4.113-.731Z" transform="translate(-24.148 -1.339)" fill="#d5d5d5"/>
    <path id="ellef_ringnes" data-name="ellef ringnes" d="M256.641,23.4l-.48,1.7-1.211,1.7v2.433l4.593-.731,4.833,4.146h1.691V28.507l-4.833-5.367-4.593.262Z" transform="translate(-22.656 -1.016)" fill="#d5d5d5"/>
    <path id="amund_ringnes" data-name="amund ringnes" d="M267.81,27.891l1.931,2.193-1.691,2.924,1.211,3.164,5.324-2.924V31.055L271.443,27.4l-3.633.491Z" transform="translate(-21.486 -0.628)" fill="#d5d5d5"/>
    <path id="axel_heiberg" data-name="axel heiberg" d="M274.24,23.2l.24,3.895h6.535l1.691,1.462-.24,1.7-5.8.731,4.113,5.607,5.564.971,7.735-3.415L282.946,17.33l-3.382,2.193.24,2.924-3.873-1.462L274.24,23.2Z" transform="translate(-20.902 -1.544)" fill="#d5d5d5"/>
    <path id="victoria" d="M223.87,47.96l-9.186,2.433-5.324,4.636.48,5.117,9.677,2.924-2.182,4.877-7.015-4.386-1.931,3.655,4.593,3.164-.24,5.117,7.015,1.953,8.466-.491,1.451-2.684,6.284,7.069,4.353-1.462L241.042,75l3.142,2.193.48-4.877-3.873-2.433.24-15.35-3.382-2.684-3.622,4.876L223.87,47.96Z" transform="translate(-26.89 1.241)" fill="#d5d5d5"/>
    <path id="prince_of_wales" data-name="prince of wales" d="M250.033,58.136l-3.142-1.462L245.2,58.867l3.382,5.367.24,5.117,7.255-4.386V58.626l2.662-2.684-2.662-1.953h-4.353l-1.691,4.146Z" transform="translate(-23.542 1.79)" fill="#d5d5d5"/>
    <path id="prescott" d="M264.244,55.78l-5.084,4.146,1.211,5.117h3.142l1.451-2.684,2.182,2.193,2.182-.24,5.8-4.877L264.244,55.78Z" transform="translate(-22.273 1.953)" fill="#d5d5d5"/>
    <path id="cornwallis" d="M263.471,48.4l-1.211,2.433,5.324,1.953,1.451-2.193L263.471,48.4Z" transform="translate(-21.991 1.281)" fill="#d5d5d5"/>
    <path id="bathurst" d="M261.2,39.91l-5.324.731-3.142,2.924,5.8.24-1.691,4.386,1.211,1.953,1.691-.24,4.113-6.578L261.2,39.91Z" transform="translate(-22.858 0.509)" fill="#d5d5d5"/>
    <path id="devon" d="M269.162,38.35l-2.9.971.48,3.895,4.833,3.164.24,2.433-1.451,1.462.731,4.877,18.622,6.087,5.084,1.7,5.084-4.386-6.044-4.876-5.564,1.462-7.735-.731-2.9-2.924-.731-8.04-4.833-2.433-2.913-2.662Z" transform="translate(-21.627 0.368)" fill="#d5d5d5"/>
    <path id="baffin" d="M284.13,61.631l-5.324-.491-6.284,2.433L269.14,68.2l.971,12.677,10.4.491,9.917,4.877,7.015,8.04,5.324-.24-1.451,7.549-4.833,8.04-5.324,2.433-3.873-.731-1.931-1.7-2.9,3.895,1.211,3.895,4.113.24,5.084-2.433,4.353,11.215,10.888,7.069,7.495-9.5-6.284-10.233,3.633-4.146,5.084,8.531,9.186-8.04-1.691-3.655-6.284,1.953-4.353-11.946L319,89.657l-8.226-8.771-4.593,3.164-4.353-9.5-9.186,1.222-2.422-11.455-7.495,5.117-.731,6.338h-4.113l.48-5.607,5.771-8.531Z" transform="translate(-21.365 2.44)" fill="#d5d5d5"/>
    <path id="bylot" d="M293.021,65.61l-1.931,1.953,1.691,2.684,7.986.971-5.084-5.367-2.662-.24Z" transform="translate(-19.369 2.847)" fill="#d5d5d5"/>
    <path id="ellesmere" d="M286.214,42.494v2.193l-5.324,1.222,1.451,2.433,6.044,2.433,6.775.731,4.833,3.415,4.833-2.684-3.382-3.415H305.8l2.662-2.924,6.535-.971V43.465l-3.633-2.433.48-2.684L322,40.051,337,34.2l-5.564-1.7,1.451-1.953h11.608l1.931-1.953L322.957,20.3l-5.564-1.953-6.044,4.386-6.775-5.607-3.633-.24-.731,4.637-4.593-4.146-5.324,1.7.971,2.684,7.986,1.7-.48,3.895,4.353,2.684,10.648-2.684.24,3.655-8.706,4.146-5.324-4.146-4.833.491,4.833,6.829L297.56,39.56,293.927,36.4l-2.662,1.7,2.422,4.626H297.8l-.971,4.386-3.382-.491-4.353-4.636-2.88.513Z" transform="translate(-20.297 -1.584)" fill="#d5d5d5"/>
    <path id="southhampton" d="M266.418,101.85l-4.615,5.8-.284,6.393,4.036-2.324h4.9l3.458,3.2,3.175-2.618L266.418,101.85Z" transform="translate(-22.058 6.142)" fill="#d5d5d5"/>
    <path id="newfoundland" d="M318.481,171.05,306.95,182.09l1.156,2.618,14.117,5.226,2.018-3.48-1.156-5.8-4.615.578-2.6-2.9,4.32-4.353-1.713-2.924Z" transform="translate(-17.927 12.435)" fill="#d5d5d5"/>
    <path id="canada" d="M160.708,48.66l2.171,3.284,1.091,4.386,5.433,1.364,3.807-4.1,3.262,1.647,9.24.818,6.524-2.738,1.091,9.033h3.807V58.522l3.807.273,9.513,11.226,6.251,3.829-3.262,5.2,1.364,1.364,12.208,2.466.273,5.477,3.262.545.818-8.215,5.16-1.364,3.807,5.749,8.149,3.829,4.08.818,2.716-3.284.273-5.2,4.887-3.011,1.626,4.386-4.353,7.669.546,3.829,2.444-3.829,4.887-4.386.273-5.749-2.716-4.386.818-3.556,6.524-3.284,2.989,2.193.545,19.168,4.615-4.1,2.716,1.647-3.807,6.567,4.887,1.091L289.5,84.53l5.978,6.295-2.444,11.226-5.978,3.284-5.706-2.738-10.32,2.193,1.091,3.556-2.716,4.386-8.422,1.92-9.513,7.4-8.422,11.226-1.091,3.556,5.706,2.193,2.171,5.477,7.877,7.942,12.5,5.477L267.5,170.507l-.273,3.556,3.262,2.193,4.353-5.749.546-10.953,6.8-.273,3.262-6.295.546-9.578,8.695-16.975,10.866,3.829,5.706,7.942-2.444,7.942,4.353,2.466,10.593-7.124,2.989,19.441,9.786,11.771.273,6.022-10.866,2.738-5.16,5.477-10.866-2.466-5.433-.273-9.513,7.4,5.706-1.364,7.069-1.364,1.364,1.647-1.9,6.022.273,5.477,3.262,2.193,3.262-.818,1.636-2.466h2.171l-3.535,6.568-6.8.273-2.989,4.386h-3.807l-1.091-3.284,5.433-5.477-6.524,2.193-.294-9.306-1.876-1.091-5.706,2.465-.546,4.658H277.035L265.9,209.978l-14.946,4.931-1.626-2.193,7.528-11.237-4.277-4.113-2.716-5.215-5.531-4.222-5.935-.491-10.637-7.451-77.14-12.677-1.276-5.226-7.069-6.568v-5.477l1.091-4.931-.545-2.738-2.716-2.738-.545-4.386,7.069-4.931-4.353-23.543-5.978-.273-5.433-7.124L160.708,48.66Z" transform="translate(-33.941 1.305)" fill="#d5d5d5"/>
    <path id="usa" d="M150.528,158.34l-1.091,4.386-3.807-2.466h-1.9l-1.091,4.658-13.32,29.848,3.535,26.008,4.353,2.193.818,7.124h8.968l8.695,6.567,17.117,1.647,1.9,8.76,2.716,1.92,3.807-3.829,2.989,1.364,2.716,12.589,4.615,3.011L195.355,255l11.684-8.487,7.6,3.556,6.524.546.273-4.1,13.582.273,2.716,3.011.546,6.84-1.626,3.829,1.9,6.567h4.08l4.08-6.295-1.625-3.011-1.626-6.568,2.444-7.4,11.139-9.578,8.422-2.466-1.091-7.942,11.684-12.6,11.684-1.92-1.9-6.557,11.411-6.567v-8.76l-1.091-.545-4.08,1.364-.546,5.367-13.56.164-10.626,7.058-16.68,5.455-2.662-3.262,7.571-11.455-3.742-3.567L249.3,183.1l-5.269-4.233-5.727-.48-10.822-7.386L150.528,158.34Z" transform="translate(-34.081 11.28)" fill="#d5d5d5"/>
    <path id="haida_gwaii" data-name="haida gwaii" d="M133.985,128.41l-1.855,3.556.644,2.52,1.211.753-.284,1.025-1.3.371.371,3.742,1.4,1.407,1.113-1.211-1.4-3.644.829-2.9,2.04-2.716-1.484-2.52-1.287-.382Z" transform="translate(-33.825 8.558)" fill="#d5d5d5"/>
    <path id="vancouver" d="M139.589,147.95l-1.669.655,3.066,3.556.742,4.211,3.066,3.273,2.6-.469v-4.3l-3.153-1.964-4.647-4.964Z" transform="translate(-33.299 10.335)" fill="#d5d5d5"/>
    <path id="guatemala" d="M194.88,292.428l6.469,4.735,6.524-8.106-1.113-1.68-2.225-.076v-4.746l-1.669-1.015-5.051,1.506,1.931,4.451-4.866,4.931Z" transform="translate(-28.119 22.484)" fill="#d5d5d5"/>
    <path id="honduras" d="M207.826,288.812l10.08-.382,2.989,3.557-1.866-.426-3.589.153-4.691,4.407-2.007,4.462-1.32-.7L207.412,295l-2.9-1.942,3.316-4.244Z" transform="translate(-27.243 23.11)" fill="#d5d5d5"/>
    <path id="el_salvador" data-name="el salvador" d="M201.65,296.528l5.127,2.553-.076-4.047-2.629-1.6-2.422,3.1Z" transform="translate(-27.503 23.565)" fill="#d5d5d5"/>
    <path id="nicaragua" d="M218.53,292.11l2.389.48.076,4.9-2.782,7.942-7.495-.742-1.669-3.829,2.226-4.647,4.222-3.927,3.033-.174Z" transform="translate(-26.83 23.445)" fill="#d5d5d5"/>
    <path id="costa_rica" data-name="costa rica" d="M217.984,305.027l1.516,2.967,1.233,1.636-1.658,4.92-3.164-2.225-5.171-4.735V304.46l7.244.567Z" transform="translate(-26.676 24.568)" fill="#d5d5d5"/>
    <path id="panama" d="M220.723,309.777l-1.593,4.975,5.258,1.364,3.262.644.556-3.851,3.5-1.767,3.109,1.6,1.222,1.953,1.484-.175,1.167-3.546-3.884-1.6-2.946-1.6-2.945,2.007-3.5,1.767-3.578-1.44-1.113-.327Z" transform="translate(-25.913 24.869)" fill="#d5d5d5"/>
    <path id="colombia" d="M255.813,299.8l-2.247-.229-14.859,12.251-1.571,4.309-2.029.229.906,9.524-5.182,12.71,5.629,4.767,7.211.458,4.953,7.266,7.2.229-.229,5.444h2.695l2.924-9.982-2.706-3.4.676-6.349,5.629-.458-.676-14.75-12.611-4.08-2.924-7.942,7.211-9.993Z" transform="translate(-24.849 24.123)" fill="#d5d5d5"/>
    <path id="venezuela" d="M250.658,306.347l.48,2.826,3.546,1.124.807-5.2,3.742-3.873,3.742,4.386,8.608,2.345,7.288-1.527,4.964,6.12,3.742,2.346-4.1,6.251,1.375,4.735-2.346,2.9-2.433,2.04-5.269-2.651-1.211,1.222v3.775L277.441,335l-2.836,3.066-2.837,3.066-3.742-.305-3.764-4.135-.8-15.557-12.851-4.386-2.335-6.84,2.378-3.556Z" transform="translate(-23.262 24.273)" fill="#d5d5d5"/>
    <path id="guyana" d="M285.371,314.13l7.877,7.135-3.131,3.622-.251,2.149,4.113,4.244-.1,4.08-7.157,2.727-4.287-5.793.916-6.96-1.833-5.182,3.851-6.022Z" transform="translate(-20.24 25.447)" fill="#d5d5d5"/>
    <path id="suriname" d="M293.391,321.148l2.225,2.04,3.447-2.138,3.142.1-.4,1.222-1.32,2.749-.207,6.84L294,334.512l.305-4.386-4.047-3.775.207-1.942,2.924-3.262Z" transform="translate(-19.445 26.077)" fill="#d5d5d5"/>
    <path id="guyane" d="M302.273,321.8l6.382,3.982-3.338,6.633-1.211,1.527-3.546-2.04.1-7.146,1.615-2.956Z" transform="translate(-18.508 26.145)" fill="#d5d5d5"/>
    <path id="ecuador" d="M230.747,335.85l-5.16,3.207-.371,4.756-1.036,1.56,3.251,3.12-1.407,1.538.327,3.927,5.815,1.385,8.8-10.419-.022-3.633-4.222-.273-5.978-5.171Z" transform="translate(-25.454 27.423)" fill="#d5d5d5"/>
    <path id="peru" d="M225.206,350.3l-2.116,2.138.142,3.415,18.481,33.688,19.19,12.371,2.967-4.975L264.579,386l-1.549-6.818-5.226-8.815-3.109.993-1.407,1.56L247.08,365.8l1.549-8.389,7.2-4.691-.567-4.407-7.331-.284-3.807-6.393-2.116-.709.142,3.84L232.7,356l-7.058-1.7-.436-3.993Z" transform="translate(-25.553 27.885)" fill="#d5d5d5"/>
    <path id="bolivia" d="M258.71,373.116l8.978-3.917,2.967.284,1.975,8.248,13.68,4.549,2.258,6.971,5.64.709,2.4,5.967-1.691,5.4-9.175.709-3.382,8.673-7.2-.142-2.258-.426-4.157,4.036-2.051-.2-7.058-16.353,1.953-2.924.687-11.564-1.746-6.884-1.822-3.142Z" transform="translate(-22.314 30.456)" fill="#d5d5d5"/>
    <path id="paraguay" d="M292.712,399.51l2.4,2.618-.284,5.542,6.917-.425,5.226,6.687-.426,5.968-3.382,5.116-6.917.284-.284-2.847,1.975-4.691-6.775-4.266h-5.64l-4.233-4.549,3.077-8.793,8.346-.644Z" transform="translate(-20.26 33.212)" fill="#d5d5d5"/>
    <path id="uruguay" d="M300.546,431.93l-2.236,2.389.927,12.851,7.026,2.04,8.935-8.957-14.651-8.324Z" transform="translate(-18.712 36.16)" fill="#d5d5d5"/>
    <path id="argentina" d="M309.319,419.152l2.116,1.986-8.04,11.946-2.826,3.131.982,13.648,6.207,7.538-5.215,9.1-3.949,1.7h-4.517l1.265,7.1-7.058,2.422,1.691,5.967L285.743,497.2l5.226,4.266-2.826,6.96-4.8,7.538,2.542,5.258-6.207.993-5.084-6.251-.851-19.473-7.9-33.077,2.389-11.564-5.084-14.782,3.382-19.19,3.109-3.7-.764-2.8,3.993-3.644,8.9.611,4.975,5.313,5.749.1,5.891,3.6-1.735,4.058.415,4.1,8.346-.393,3.906-5.967Z" transform="translate(-21.91 33.96)" fill="#d5d5d5"/>
    <path id="tierra_del_fuego_chile" data-name="tierra del fuego chile" d="M285.428,514.1l-4.658,10.233,8.04.851.142-6.818-3.524-4.266Z" transform="translate(-20.308 43.633)" fill="#d5d5d5"/>
    <path id="tierra_del_fuego_argentina" data-name="tierra del fuego argentina" d="M288.92,518.79l.284,6.251,4.8-.425,4.091-2.705-6.917-1.418-2.258-1.7Z" transform="translate(-19.567 44.059)" fill="#d5d5d5"/>
    <path id="chile" d="M285.9,523.218l-3.5,3.873-.426,4.549L275.2,527.8,268,517.425l-2.116-3.7,2.967-3.84-.284-4.833-3.382-1.418L262.5,501.65l.567-2.706,3.524-.993.709-15.633-5.5-3.131-3.589-81.373.927-1.615,7.026,16.2,2.247.044.731,2.586-2.989,3.622-3.436,19.5,4.887,15.011-2.258,11.368,7.964,33.426.84,19.55,5.706,6.6,6.044-.884Z" transform="translate(-22.359 32.911)" fill="#d5d5d5"/>
    <path id="chiloe" d="M262.4,475.14l-1.407,2.127.709,3.7,1.407.142.709-4.691L262.4,475.14Z" transform="translate(-22.107 40.09)" fill="#d5d5d5"/>
    <path id="brazil" d="M320.451,449.195l6.818-13.113.251-11.018,12.72-8.2h7.124l5.6-9.48,1.014-18.2-2.291-4.866,13.484-12.306.513-13.582-18.317-8.968-22.124-6.917-10.429-1.025,2.8-5.891-.764-8.968-2.28-.753-3.371,6.7-1.767,2.215-4.538-2.007-15.262,5.378-5.084-6.4.818-6.687-4.8,4.887-5.3-2.858-.535.753.011,2.324,4.571,2.455-6.862,7.233-4.331-.044-4.386-4.462-4.964.153-.611,5.3,2.847,3.458-3.36,10.768-3.927.306-6.251,3.949-1.527,7.757,5.422,5.8.993-1.124,3.807-1.026,3.251,5.477,9.306-3.993,3.611.207,2.487,8.8,13.277,4.211,2.291,7.026,5.651.676,2.695,6.709-1.822,5.967,2.378,3.12-.349,4.647,6.371-.6,5.837,7.375-.458,5.182,3.458,2.924-8.291,12.557,14.6,8.171Z" transform="translate(-23.475 26.445)" fill="#d5d5d5"/>
    <path id="belize" d="M204.565,282.554l-.055,3.982h.916l3.12-5.826H206.43l-1.865,1.844Z" transform="translate(-27.243 22.408)" fill="#d5d5d5"/>
    <path id="russia" d="M845.456,78.133l1.92,6.633,3.84,1.1,3.84-6.077-2.193-4.146.818-3.589h5.76l-1.375,2.76.545,9.949-8.226,20.444.818,4.418-.273,7.462,15.349,22.375,3.011.829.273-18.23,3.011-2.76-3.294-7.178,2.738-3.044-6.033-8.007-3.295.273L861.6,88.093l8.5-2.215.546-3.873,4.386-1.1,2.466,2.215,3.011-12.153,5.2-8.837,4.113-2.215,3.567.273V56.041l-5.76-1.1-7.953-6.633,3.84-4.418-3.295-7.462,2.738-2.76,3.295,4.418,8.225,3.044,9.044.829,1.1-3.862L899.971,33.4l5.2-7.178L893.381,22.08l-3.011,6.077-3.84-4.975L864.875,15.72l-20.564,3.589L841.3,20.967v1.658l4.386,2.215-.546,5.247-7.953-3.316-17.542,6.906-3.011-6.349H804.568l-5.488,5.8-19.462-4.418L761.8,32.3l-2.193,5.52,2.738.829-.273,4.146-17.27,1.931,1.1,5.52L730,47.488l3.84-7.178-16.179-.829,1.374,7.462-5.2,2.487-4.386-4.146-17.815,3.044-6.851,6.349-.273,3.862-4.386.273-.546-4.418,13.986-12.153V33.95l-9.044-2.487-11.793,3.862L667.8,30.35H665.6l-2.738,5.52,2.193,2.487-15.633,8.564L636,57.143,627.77,68.467v4.691l8.771,3.589-4.386,3.316-9.316-3.316L619,80.064l-5.76-6.633-1.1,2.487,6.306,19.888,1.647.556,4.386-2.215,2.193,1.658V99.4l-4.113-1.658-2.465,1.931,1.647,3.589-1.375,9.393-8.5.829-.545-3.044,4.931-3.044,1.1-8.291-5.488-7.178L609.944,79.5l-8.771-1.385-.818,4.418L602,84.744l-3.567,3.044,1.374,8.291,5.2,2.215,1.1,6.077-5.215-3.316L587.47,98.566l-1.647,4.418-10.691,3.862-1.647-2.76L559.5,111.821l-.273,5.247-5.487.829,1.647-3.862v-3.862l-5.488-1.931-3.567,1.386,3.011,5.8,2.193,3.862v3.044l-4.113-.829-.818-.829-4.113,4.418,2.193,3.862-9.317-.273,3.011,3.873-.818,1.658h-4.931l-3.568-2.487-.818-6.906-5.76-2.215v-2.76l12.066,2.487,6.579.556,2.738-4.146L541.4,114.33l-17.542-6.906L517.8,108.93l-2.073,1.778.644,4.091,2.575.447-.6,6.437,7.942,18.655-5.738,9.1-.393,2.051,2.913,2.051-2.629,1.735-1.745.033.327,8.018,2.411,3.415.033,3.316,3.088.284,4.724,1.8,5,6.873.054,1.811L532.7,183.6l3.731-.207,3.633,1.047,4.909,6.949,12.088,1.1-.523,8.269-4.168,3.567.862,1.4-4.113,4.418-1.091,4.146,2.465,3.589,7.953,2.76,3.295-1.931,21.11,8.008.818-2.215-4.386-4.146v-5.247l-2.738-.829.546-4.418,4.385-5.247-7.866-5.891.546-8.193L582.572,185l9.873.556,1.647,3.044,10.146.556,7.407-4.146-3.84-4.146.818-7.735,19.19-9.393,14.76,6.655,4.931-4.418,14.531,13.811,10.964-1.1,3.84,3.862,10.418,1.1,6.851-9.393,8.771,3.873,4.658.829,4.658-4.146-4.113-2.76,3.567-5.52,10.146,3.316,2.193,4.418,4.386.273,2.738-1.931,7.408-.273.818,1.931,8.5.556,5.76-6.077,11.793,1.385,3.567-1.385,1.091-6.633-3.568-8.008,3.568-3.044h11.237l10.691,12.709,13.7,7.735h4.113l.545-3.316,4.931-3.044.545,17.957-4.385.273v4.418l2.466,3.044-.458,3.949,1.822.753,1.1-2.76,1.647.556,1.091,1.1,4.931-1.1,4.931-14.368.546-17.957L823.2,146.644l-7.953-9.666-3.84.556v3.044l-9.317-3.589,3.567-7.735,3.011-20.444,12.611-3.862,6.033-3.862h6.578l-1.647,2.215,1.647,2.76,5.76-6.077,3.295.273-.546-3.589-5.215-1.1,3.567-12.982,4.7-4.451Z" transform="translate(1.06 -1.69)" fill="#d5d5d5"/>
    <path id="china" d="M672.7,172.744l-3.774,9.491-5.2-.273-5.488,12.011,4.658,5.935-9.6,13.255-4.931-.829-3.295,4.146.818,2.487,3.84.273,1.92,4.418,3.84.829,11.793,15.2v7.735l5.76,3.589,6.306-1.1L687.3,254.6l9.6,2.76,4.658-.556,5.215-.556,10.964-7.178,3.567.556,1.364,3.24,3.022.905,4.113,6.077-2.738,6.077,1.647,4.146,4.658,1.658.818,4.975,5.487.556.818-2.487,7.953-4.146,4.931.273,5.76,6.349,3.84-1.658,2.466.273,1.1,3.044,1.92.273,2.738-3.862,10.964-4.146,9.873-11.88,3.294-11.324-.273-7.462-4.113-.829,2.466-2.76-.545-4.418L782.453,222v-5.247l3.011-3.862,3.011-1.385.273-3.044h-7.68l-1.375,4.146-3.567-.829-4.386-4.691,2.738-7.178,3.84-4.146,3.567.273-.545,6.349,1.92,1.658,4.658-4.691,1.647-.273-.545-3.589,4.385-5.247,3.295.273,1.92-6.077,2.247-1.189.229-3.786-2.182-2.291-.185-5.978,4.2-.273-.273-15.415-2.945,1.767-1.1,3.949-4.92-.011-14.258-8.018-10.3-12.415-10.451-.109-2.662,2.313,3.382,7.746-1.178,7.266-4.211,1.746-2.367-.185-.175,7.189,2.466.556,4.386-1.931,5.76,2.76v2.76l-4.113.273-3.295,7.178-3.011.273L742.971,192.7l-11.237,4.975-7.68.556-5.2-3.589-7.407,3.873-7.953-2.487-1.92-5.247-13.43-.829-7.124-11.6h-3.011l-2.422-5.378Z" transform="translate(12.822 9.673)" fill="#d5d5d5"/>
    <path id="mongolia" d="M673.8,171.547l6.349-8.422,7.626,3.524,5.182,1.386,6.349-5.826L695,159.034l2.836-4,8.466,2.989,2.935,4.811,5.3.142,2.771-2.062,5.706-.229,1.244,2.116,9.48.48,6-6.12,8.3.873-.48,8.335,3.633.829,4.462-2.029,4.724,2.335-.109,1.178-3.426.1-3.568,7.484-2.771.273-10.779,14.084-11.008,4.855-6.884.535-5.717-3.687-7.309,3.906-7.2-2.236-2.04-5.226-13.637-.96-6.982-11.837-3.393-.218-1.757-4.2Z" transform="translate(15.435 10.979)" fill="#d5d5d5"/>
    <path id="north_korea" data-name="north korea" d="M778.319,195.52l2.007.84.611,7.026,3.982.229,3.753-4.4-1.3-1.156.153-4.713,3.447-4.167-1.756-3.164,1.146-1.309.633-3.273-2-.905-1.7.862-2.105,6.393-3.4-.295-3.938,4.647.469,3.382Z" transform="translate(24.898 13.298)" fill="#d5d5d5"/>
    <path id="south_korea" data-name="south korea" d="M788.634,198.2l6.742,5.5,1.145,5.324-.229,2.858L793,215.59l-2.837.153-3.218-6.949-1.222-3.317,1.3-1-.305-1.386-1.6-.72,3.524-4.167Z" transform="translate(25.558 14.904)" fill="#d5d5d5"/>
    <path id="kazakhstan" d="M577.318,191.915l4.473-1.909,5-.175.349,7.637h-2.924l-2.236,3.644,2.924,4.855,4.309,2.433.393,2.782,1.582-.524,1.462-1.735,2.411.524,1.211,2.433h3.1v-3.12l-1.9-5.553-.862-4.506,5.509-2.433,7.408,1.211,4.647,4.68,10.506-1.036,5.858,8.324,6.884.349,1.9-3.12,2.411-.524.349-3.469,3.611-.175,1.9,2.258,1.9-4.506,16.353,2.258,2.749-3.644-4.647-5.727,6.2-13.528,5,.349,3.447-8.324-6.884-.7-3.96-3.818-10.909,1.266-14.051-13.582-4.953,4.4L622.8,152.39l-18.426,9.022-.513,6.415,4.309,5.029-8.4,4.746-10.9-.24-2.28-3.349-8.542-.469-8.095,5.2-.175,7.113,7.538,6.055Z" transform="translate(5.975 10.738)" fill="#d5d5d5"/>
    <path id="turkmenistan" d="M594.284,207.986l-.676,2.869H589.08v3.884l4.866,3.207-1.506,4.4v2.029l2.018.338,2.684-3.546,6.044-1.353,12.917,4.9.164,3.546,7.211.676,8.051-8.455-1-2.706-5.367-1.178-15.1-9.808-.676-3.546h-5.706l-2.52,4.735h-2.52l-4.353.011Z" transform="translate(7.73 15.363)" fill="#d5d5d5"/>
    <path id="uzbekistan" d="M632,221.4l3.36.175v-5.749l-3.185-1.855,5.367-6.764h2.182l2.182,2.542,5.706-2.193-7.888-2.706-.305-1.636-1.876.458-1.844,3.207-7.953-.262-5.836-8.258-10.255,1.015-4.887-4.844L600,193.38l-4.909,2,2.847,9.469.033,3.186,2.073.044,2.542-4.844,6.764.087,1,3.72,14.5,9.622,5.608,1.287L632,221.4Z" transform="translate(8.277 14.466)" fill="#d5d5d5"/>
    <path id="tajikistan" d="M630.19,212.3l4.484-5.564h1.691l.589,1.244-2.073,1.506v1.244l1.364.982,6.557.393,2.138-.916.971.2.655,2.095,3.895.393L652.412,218l-.589,1.244-.774.065-.775-1.571-1.691-.131-2.924.393-.2,2.749-2.924-.2.131-3.469-2.138-2.095-3.251,2.684.065,1.767-2.858.982H632.8l.131-6.087L630.19,212.3Z" transform="translate(11.469 15.681)" fill="#d5d5d5"/>
    <path id="kirgizstan" d="M636.948,199.4l-.338,2.76.273,1.7,9.491,3.185-8.335,3.36-.949-.785-1.8,1.156.087.633.96.436,5.847.153,2.967-.895,3.807-4.8,4.767.829,5.749-7.964-15.382-2.095-2.127,5.16-2.684-2.88-2.335.044Z" transform="translate(11.933 14.803)" fill="#d5d5d5"/>
    <path id="afghanistan" d="M614.12,228.126l1.735,13.593,4.32.949.4,2.444-3.1,2.586,5.771,4.658,11.215-4.036.895-4.778,7.059-4.407,2.705-10.211,2.018-2.171-2.095-3.644,6.829-4.222L651,217.664l-3.153.2-.284,2.9-4.233-.044-.076-3.873L641.9,215.22,639.6,217.3l.066,1.909-3.458,1.309-6.382-.4-8.291,8.684-7.419-.676Z" transform="translate(10.008 16.452)" fill="#d5d5d5"/>
    <path id="pakistan" d="M623.254,252.78l2.836,4.211-.273,2.171-3.775,1.495-.273,3.535h4.32l1.484-1.222H635.8l7.418,6.524.949-3.131H649.7l.131-3.938-5.662-5.433L645.378,254l5.8-.4L659,237.289l-4.32-3.393-1.615-5.706,10.517-.949-6.208-8.837-3.305-.895-1.353,1.636-1.015.076-6.208,3.938,2.029,3.4-2.291,2.444L642.4,239.471l-7.015,4.484-.949,4.9-11.182,3.927Z" transform="translate(10.703 16.661)" fill="#d5d5d5"/>
    <path id="india" d="M673.586,320.82l5-2.444,2.967-10.735-.131-13.178,17-18.35V271.76l3.5-1.364-.131-5.029-3.775-7.342,2.16-3.938,4.724,4.353,6.066.273v2.444l-1.887,2.04.4,1.091,3.24.131.676,3.666h.949l2.433-4.353,1.211-11.411,4.047-2.858.131-3.938-1.615-3.131-2.564-.131-10.037,6.633.633,4.266-7.047-.022-2.488-3.044-1.353.175.458,4.233-15.241-1.091-9.447-4.211-.5-5.182-6.295-3.906-.076-8.04-4.32-4.942-9.928.949,1.08,4.32,4.866,3.938-8.411,17.215-5.629.425-.927,2.073,5.542,5.127-.273,5.182-5.662-.087-.611,2.575,4.7-.207.131,2.04-3.371,1.767,2.16,4.08,4.178,1.364,2.564-1.9,1.211-3.393,1.484-.676,1.756,1.767-.535,4.353-1.211,2.04.273,3.535,17.924,37.2Z" transform="translate(12.572 17.535)" fill="#d5d5d5"/>
    <path id="nepal" d="M671.19,242.65l.5,4.658,8.815,3.993,14.128,1.047-.535-3.415-9.437-2.6-8.007-4.767-5.466,1.08Z" transform="translate(15.198 18.849)" fill="#d5d5d5"/>
    <path id="bhutan" d="M695.4,248.147l1.691,2.313,5.717.044-.578-3.164-6.829.807Z" transform="translate(17.399 19.373)" fill="#d5d5d5"/>
    <path id="bangladesh" d="M695.689,253.11,694.26,255.7l3.709,7.047.109,5.5.676,1.473,4.353.076,2.466-2.367,1.789,1.08.36,3.349,1.429-.895.087-4.277-1.2-.142-.753-3.633-3.033-.109-.753-2.018,1.855-2.476.033-1.222H700l-4.309-3.971Z" transform="translate(17.296 19.898)" fill="#d5d5d5"/>
    <path id="burma" d="M731.484,309.039l-3.022-4.844,2.193-3.077-2.073-3.807-1.953-.371-.371-6.393-2.924-5.662-.851,1.353-1.953,3.317-2.444.371-1.222-1.6-.611-4.309-1.833-3.447-7.462-7.037,1.833-1.211.338-5.095,2.728-4.582,1.178-11.4,3.949-2.695.131-4.156,2.367.786,3.731,5.4-2.771,5.935,1.866,4.658,4.615,1.811.84,5.073,6.2.96-1.713,2.956-7.811,3.076-.851,5.04,5.738,7.375.24,3.938-1.342,1.353.12,1.233,4.276,6.273.12,6.513-1.255,2.269Z" transform="translate(18.451 19.105)" fill="#d5d5d5"/>
    <path id="thailand" d="M730.664,270.47l3.535,4.549v5.531l1.222.611,5.618-2.706,1.1.371,6.709,7.746-.24,5.291-2.193-.371-1.953-1.233-1.462.12-2.564,4.3.491,2.335,2.073,1.1-.12,2.586-1.462.742-5.007-3.447v-3.076l-2.073-.12-.851,1.353-.437,13.768,3.24,5.913,5.738,5.531-.24,1.6-3.055-.12-2.8-4.178H733l-3.665-2.956-1.1-3.076,1.582-2.586.546-2.335,1.724-3.055-.076-7.026-4.211-6.087-.175-.742,1.364-1.375-.316-4.833-5.608-7.1.655-4.091,6.949-2.935Z" transform="translate(19.915 21.477)" fill="#d5d5d5"/>
    <path id="malaysia" d="M732.71,315.455l2.193,4.92.491,6.393,2.935,4.549,7.08,4.3,2.684.251-.491-4.429-2.323-5.651-3.4-7.233-.284,1.265-4.1-.186-2.946-4.233-1.833.055Z" transform="translate(20.792 25.563)" fill="#d5d5d5"/>
    <path id="cambodia" d="M740.544,300.395l4.462,4.767,8.3-6.153.731-9.709-4.287,2.956-2.225-1.244-3.022-.4-1.691-1.189-.818.044L739.78,293.1l.36,1.68,2.247,1.255-.273,3.415-1.571.949Z" transform="translate(21.435 23.189)" fill="#d5d5d5"/>
    <path id="laos" d="M735.873,262.93l-2.64,1.342-2.193,6.393,3.666,4.669-.611,5.16.611.251,6.1-2.957,8.182,9.142-.2,5.76,1.778.96,4.4-3.567-.36-2.826L741.917,275.2l.12-1.844,1.582-1.1-1.1-3.077-5.247-.862-1.4-5.389Z" transform="translate(20.641 20.791)" fill="#d5d5d5"/>
    <path id="vietnam" d="M745.865,308.44l1.3,2.04.24,2.335,3.415.371,4.146-5.531,3.905-1.1,2.073-5.651-.971-9.1-4.026-5.531L751.7,282.88l-5.4-9.273,3.873-6.48-5.542-6.36-4.44-.2-3.993,2.149,1.189,5.138,5.324.938,1.429,3.96-1.876,1.222.12.982,12.491,12.219.491,3.589-.753,11.346-8.75,6.327Z" transform="translate(21.11 20.577)" fill="#d5d5d5"/>
    <path id="georgia" d="M555.46,204.3l3.567,4.658L563.478,211l2.738-.011,4.7-1.276,1.178-1.844-13.909-5.2L555.46,204.3Z" transform="translate(4.673 15.311)" fill="#d5d5d5"/>
    <path id="armenia" d="M570.1,209.89l5.236,6.829-1.538,1.8-3.709-.644-4.6-4.124.251-2.706,4.364-1.156Z" transform="translate(5.585 15.968)" fill="#d5d5d5"/>
    <path id="azerbaijan" d="M571.5,207.72l-1.1,1.876,5.138,6.742,1.789-.578,2.945,3.087,1.276-5.411,3.2.513-.131-1.549-5.258-4.6-1,2.706L571.5,207.72Z" transform="translate(6.032 15.77)" fill="#d5d5d5"/>
    <path id="iran" d="M569.761,218.129l-1.331,1.385.131,2.193,1.658,2.324,5.88,6.437-.895,2.575h-1.026l-.513,2.575,3.327,4.255,3.066.262,6.142,8.5,3.447.262,2.684,1.931.131,3.862,10.615,6.186h3.96l2.433-2.062,3.065-.131,1.789,4.124,11.466,1.593.338-4.211,3.8-1.375.175-1.506-3.022-4.124-6.731-5.411,3.535-3.218-.251-1.418-4.429-.687L617.326,227.5l-.218-3.436L605.1,219.471l-5.324,1.2-2.978,3.655-2.64-.175-.764.644-5.88-.382L580.092,219l-2.76-3.022-1.265.305-2.28,2.607-4.025-.764Z" transform="translate(5.853 16.522)" fill="#d5d5d5"/>
    <path id="turkey" d="M562.291,209.276l-2.433,2.575-8.946-.262-5.367-3.218-5.237-.131-6.011,4.255-5.629.262-.513,3.218h-6.393L519.21,218.3v1.287l1.538,1.287v1.418l-.644,1.68.644,1.418,2.051-1.025,2.051,2.193-.513,1.549-.764,1.036,1.146,1.287,5.629,1.156,3.96-1.68v-2.444l1.92.382,4.6,2.706,4.986-.775,2.171-2.062,1.407.513v2.324h1.92l1.658-3.218,14.575-1.549,6.36-.775-1.68-2.2-.033-2.978,1.277-1.527-4.648-3.731.251-3.218h-2.553l-4.233-2.073Z" transform="translate(1.376 15.818)" fill="#d5d5d5"/>
    <path id="yemen" d="M571.99,289.965l1.571,4.669v4.56l3.775,3.426,26.6-10.833.251-2.978-4.266-7.658-10.7,3.415-6.142,6.044L575.95,286.4l-3.96,3.567Z" transform="translate(6.176 22.448)" fill="#d5d5d5"/>
    <path id="oman" d="M598.38,282.564l8.062-4.647,1.429-6.818-1.767-1.015.731-7.309,1.538-.895,1.647,2.586,9.808,5.127v2.847l-11.88,17.488-5.466.185-4.1-7.549Z" transform="translate(8.576 20.696)" fill="#d5d5d5"/>
    <path id="emirates" d="M594.01,265.526l.949,3.8,10.757.949.753-7.789,2.073-1.135.567-2.847-3.393.949-3.775,5.706-7.931.371Z" transform="translate(8.179 20.388)" fill="#d5d5d5"/>
    <path id="qatar" d="M592.677,259.1l-.567,4.375,1.68,1.276,1.527-.142.568-5.509-1.32-.949-1.888.949Z" transform="translate(8.006 20.357)" fill="#d5d5d5"/>
    <path id="kuwait" d="M583.637,247.281l-2.455-1.331-1.7,1.713.185,3.426,3.96,1.516.011-5.324Z" transform="translate(6.857 19.247)" fill="#d5d5d5"/>
    <path id="saudi" d="M587.413,254.313l7.648,10.659,2.465,1.964,1.1,4.778,11.771.927,1.331.7-1.32,5.891-7.735,4.56-11.313,3.426-6.033,5.891-7.167-4.178-4.342,3.8-6.044-9.873-4.146-1.9-1.505-2.28v-4.942l-15.088-18.24-.567-3.229h4.342l5.28-4.56.185-2.28-1.506-1.516,3.022-2.466,6.415.382,10.942,9.12,6.458-.295.415,1.593,5.389,2.073Z" transform="translate(3.856 18.837)" fill="#d5d5d5"/>
    <path id="syria" d="M546.7,229.5l-.382,2.771,3.076,1.287-.131,7.68,3.076-.065,3.077-2.324,1.156-.2,6.982-5.553,1.407-8.062-13.953,1.418-1.473,3.229L546.7,229.5Z" transform="translate(3.842 17.345)" fill="#d5d5d5"/>
    <path id="iraq" d="M565.039,225.1l-1.7,8.411-7.048,5.869.447,2.771,6.884.469,10.964,8.924,6.131-.175.163-2.062,2.247-2.411,3.142,1.778.415-.393-6.077-8.084-2.88-.175-3.829-4.92.764-3.622,1.167-.153.4-1.6-5.215-5.487-5.978.862Z" transform="translate(4.749 17.273)" fill="#d5d5d5"/>
    <path id="jordan" d="M549.134,240.986l-2.684,9.36-.12,1.429h4.222l4.724-4.167.12-1.582-1.931-1.975,3.458-2.869-.5-2.662-.949.218-2.88,2.062-3.458.186Z" transform="translate(3.843 18.571)" fill="#d5d5d5"/>
    <path id="lebanon" d="M546.269,232.44l.065,2.127-.895,3.229,3.077.262.2-4.582-2.443-1.036Z" transform="translate(3.762 18.018)" fill="#d5d5d5"/>
    <path id="israel" d="M545.464,238.06l-1.724,5.487,2.236,6.578,2.564-9.611v-2.062l-3.076-.393Z" transform="translate(3.607 18.529)" fill="#d5d5d5"/>
    <path id="cyprus" d="M543.733,229.84l1.342.971-4.156,3.938-1.986-.065-1.473-1.036.2-1.931,3.011-.2,3.065-1.68Z" transform="translate(3.036 17.782)" fill="#d5d5d5"/>
    <path id="norway" d="M520.047,102.9l2.2-1.615-.2-1.811-1.4-.807.2-2.215h1.2V95.237l-5.2-1.407-7.8.807-.8,3.426-1.8-.6-1.2-2.018-3.807.2-.4,3.829-1.8.807-1-2.018-8.007,6.447,1.6,1.811-3,1.407-6.807,13.506-2.4,1.615.2,1.211,2.4,1.211-.6,2.618-4-.207-1.2-1.407-2.6,3.022-1.6,1.211-.4,2.826-1.4.807-3.6.807-1.8,5.651,1.2,9.273,1.4,4.233,1.6,1.615,3.6-.2,5.2-5.04,2-3.426.6,5.04,3.4-6.044.2-16.942,2.771-1.746.829-9.349,8.4-12.1,4-1.407,1.8-2.215,6,1.407,3,1.811,1-5.04,5.007-3.022,3.011,5.247Z" transform="translate(-3.552 5.413)" fill="#d5d5d5"/>
    <path id="britain" d="M446.906,149.2l-2,3.022.8,1.211h4.6v2.018l-1.2,1.615.8,4.233,2.6,5.04,2,4.636,3.2,1.211,1.4,2.422-.2,2.215-2,1.211-.2,1,1.4.807-1.2,1.615-2.8,1.211-5.4-.6-8.411,3.829-2.8-1.407,8.008-4.637-1-.6-4.2-.4,2.6-3.829.4-3.229,3.4-.4-.6-6.251-4-.2-1.2-1.407.2-4.637-2.4.2,2.4-8.062,4.407-3.229,1.418,1.4Z" transform="translate(-6.056 10.321)" fill="#d5d5d5"/>
    <path id="ulster" d="M438.736,161.47l-3.6.4-.2,3.229,2.4,1.615,2.6-.6,1-1.811-2.2-2.836Z" transform="translate(-6.287 11.564)" fill="#d5d5d5"/>
    <path id="ireland" d="M440.727,167l-.993,6.546-8.8,3.229h-2.8l-2-1.407v-1.211l4.407-2.826-1.2-2.422.2-3.426,3.807.2,1.746-4.1-.229,3.644,2.956,2.346,2.913-.567Z" transform="translate(-7.088 11.574)" fill="#d5d5d5"/>
    <path id="sweden" d="M499.378,104.58l2.138,1.975h4l2.2,4.233.6,7.255-5.4,3.829V125.7l-3.807,5.247-2.2.2-3,5.04.2,4.844,5.2,3.829-.4,2.215-2,3.022-3,2.618.2,8.673L489.5,163l-1.6,3.426h-2.2l-1.2-6.044-5.007-7.68,4.113-6.884.284-17.008,2.837-1.56.687-9.731,8.084-11.575,3.884-1.364Z" transform="translate(-2.236 6.391)" fill="#d5d5d5"/>
    <path id="finland" d="M507.56,118.628l2.258.993,1.4,2.618-1.4,1.811-7,7.658-1.2,4.036,1.6,5.847,5.4,4.036,7.2-3.426,5.8-.807,5.4-8.673-4-9.48-3.807-9.077.6-5.847-2.4-.4-.622-4.266L513.56,98.38l-3.578,2.476-1.407,5.749-3.8-2.28-5.28-1.287-1.178,1.375,2.029,1.833,3.7-.065,2.978,4.811.535,7.637Z" transform="translate(-0.523 5.827)" fill="#d5d5d5"/>
    <path id="path302" d="M518.693,151.471l-7.473-1.211.164,4.178,6.927,4.233,2.837-.829-.164-3.186-2.291-3.186Z" transform="translate(0.65 10.545)" fill="#d5d5d5"/>
    <path id="hiumaa" d="M506.983,147.645l-1.691-.055-.982.993.709,1.047,1.691.109.873-1.265-.6-.829Z" transform="translate(0.022 10.302)" fill="#d5d5d5"/>
    <path id="saaremaa" d="M506.992,151.734l-1.636-.164-2.946,3.524v1.647l.982.382,1.909.055,3.164-2.585.436-.884-1.909-1.975Z" transform="translate(-0.151 10.664)" fill="#d5d5d5"/>
    <path id="lithuania" d="M511.624,154.7l-2.345-.055-3.218,3.076h-2.727l.164,3.851L501.86,164.6l5.891.055,1.691-.218,1.691,2.04,3.873-.164,3.709-4.724-.218-2.8-6.873-4.08Z" transform="translate(-0.201 10.944)" fill="#d5d5d5"/>
    <path id="belarus" d="M510.66,167.054l1.637,2.695-.655,2.149.109,1.7.6,2.04,3.382-1.92,4.2.109,2.945,1.211h7.473l2.182-5.226,1.309-1.975v-1.32l-4.691-6.6-4.145-1.647-3.382-.382-2.946.938.109,2.967-4.091,5.171-4.036.087Z" transform="translate(0.599 11.239)" fill="#d5d5d5"/>
    <path id="poland" d="M513.492,175.874l.927,1.7.218,1.811-.764,1.756-1.745,3.36-1.473.666-1.909-.829-1.145.055-2.782,1.047-3.164-.938-5.127-3.633-5.018-2.695-2.018-3.076-.382-7.255,3.927-3.415,5.127-1.7,1.909-.218-.764,1.538.491.6,8.629.164,1.855-.055,3.055,4.68-.764,1.92.327,2.258.589,2.258Z" transform="translate(-1.361 11.659)" fill="#d5d5d5"/>
    <path id="portugal" d="M431.147,211.24l-.676,9.437-1.931,1.746.2,1.069,1.353,2.236-.873,2.727,1.451.491,3.382-.393-.2-2.727,2.215-12.644-.48-1.745-4.44-.2Z" transform="translate(-6.869 16.09)" fill="#d5d5d5"/>
    <path id="majorca" d="M461.245,217.21l-1.735.589.382,1.56H462.4l1.058-1.167-2.215-.982Z" transform="translate(-4.053 16.633)" fill="#d5d5d5"/>
    <path id="sardinia" d="M477.8,213.38l-2.891,1.462.382,5.64,2.313.393,1.734-1.658v-5.346l-1.538-.491Z" transform="translate(-2.652 16.285)" fill="#d5d5d5"/>
    <path id="corsica" d="M478.024,206.96,475.9,209.1l-.2,1.942,1.735,1.069.676-.1.382-2.826-.469-2.226Z" transform="translate(-2.58 15.701)" fill="#d5d5d5"/>
    <path id="france" d="M462.057,178.7l-2.411.589-4.822,5.247-1.451.1-1.931-1.364-1.254.295-.96,3.011-7.047.2.2,1.56,4.822,3.207,5.6,4.473-.1,5.346-2.989,5.247,6.469,3.109,6.567.2,2.029-2.335,4.146.1,1.156,1.069,4.146-.295,2.127-2.727-2.706-3.207-.2-2.04.578-2.236-1.353-1.942-2.313.676-.295-1.746,5.117-5.64v-3.4l-3.382-1.942-1.735-.294-8.008-5.247Z" transform="translate(-5.629 13.131)" fill="#d5d5d5"/>
    <path id="netherlands" d="M470.819,168.27l-4.942,2.433,1.047.949.109,2.433-1.047-.207-1.156-1.8-2.76,4.375,4.244.884L467.9,179l.84.022.556-3.775,2.673-1.124-1.146-5.858Z" transform="translate(-3.82 12.183)" fill="#d5d5d5"/>
    <path id="belgium" d="M461.668,176.52l-.7,1.746,7.506,4.953,2.16.513.076-2.346-1.887-2.116h-1.156l-1.582-1.8-4.418-.949Z" transform="translate(-3.92 12.933)" fill="#d5d5d5"/>
    <path id="germany" d="M471.333,168.206l3.895-.633v-2.749l3.262-.535,1.789,1.8,1.887.207,2.945-1.276,2.629.742,2.313,2.007.316,7.517,2.313,3.076-3.044.425-5.051,3.175.426,1.058,4.516,4.233-.316,2.116-4.2,2.116-3.895.109-.949,2.007h-2l-.949-2.116-3.469-.851-.109-3.491-2.946-2.007.316-2.542-2-2.749.524-3.6,2.727-1.276-.938-6.764Z" transform="translate(-3.188 11.821)" fill="#d5d5d5"/>
    <path id="denmark" d="M477.161,151.5l-4.527,5.007-.164,3.262,2.062,5.378,3.229-.611-.4-4.4,2.226-2.487-.044-1.953-1.571-4.069-.807-.131Z" transform="translate(-2.874 10.658)" fill="#d5d5d5"/>
    <path id="sjlland" d="M481.635,159.644l-1.014-.044-1.331,1.222.164,1.909,3.153.087.164-2.16-1.135-1.015Z" transform="translate(-2.254 11.394)" fill="#d5d5d5"/>
    <path id="gotland" d="M498.682,150.17l-2.3,1.822,1.156,2.673,2.04-1.985-.894-2.509Z" transform="translate(-0.7 10.537)" fill="#d5d5d5"/>
    <path id="switzerland" d="M473.307,189.38l-4.757,5.062.1.513,1.953-.611,1.757,2.444,2.967-1.047,2.051,1.593.84-.48,2.531-3.971-.644-.611-2.5-.065-1.211-2.476-3.087-.349Z" transform="translate(-3.231 14.102)" fill="#d5d5d5"/>
    <path id="czech" d="M488.8,185.51h4.833l2.586,1.844,4.789-3.982-4.647-3.317-4.6-2.225-3.153.567-4.277,2.749,4.473,4.364Z" transform="translate(-1.796 13.052)" fill="#d5d5d5"/>
    <path id="slovakia" d="M495.84,187.476l.753.665.1,1.135,8.324-.185,6.153-2.651-.1-2.695-1.178.524-1.691-.905-1.036-.044-2.727,1.091-3.709-.895-4.887,3.96Z" transform="translate(-0.749 13.551)" fill="#d5d5d5"/>
    <path id="austria" d="M480.689,190.532,479.98,192l.611,1.047,2.542-.524h2.16l2.345,1.986,4.986-.905,3.666-2.182.938-1.473-.142-1.9-3.295-2.466-4.418.044L489,188.143l-4.647,2.269-3.666.12Z" transform="translate(-2.191 13.758)" fill="#d5d5d5"/>
    <path id="hungary" d="M496.846,189.861l-1.266,1.986.1,3.033,2.018,1.036,6.207.186,8.651-7.288.044-1.615-.938-.469-6.251,2.836-8.564.295Z" transform="translate(-0.772 13.861)" fill="#d5d5d5"/>
    <path id="slovenia" d="M495.462,191.99l-2.771,1.658-5.171,1.135,1.036,2.989,3.622.044,3.338-2.793-.055-3.033Z" transform="translate(-1.505 14.34)" fill="#d5d5d5"/>
    <path id="croatia" d="M496.306,195.16l-3.851,3.175h-3.906l-.469,2.749,1.789.469.894-1.331,1.407,1.233,1.124,3.927,7.713,3.6.764-.873-7.822-8.073.8-1.473,7.429-.284.753-2.367-4.844.142-1.778-.895Z" transform="translate(-1.455 14.628)" fill="#d5d5d5"/>
    <path id="bosnia" d="M494.834,198.952l-.4.666,7.32,7.549,2.684-3.949-.1-1.56-2.346-2.847-7.157.142Z" transform="translate(-0.877 14.96)" fill="#d5d5d5"/>
    <path id="italy" d="M472.326,197.375l-.676,1.713.186,1.866L474.443,204l4.1-.142,9.055,10.517,5.651,1.636,3.338,3.153.8,7.189,1.789-1.047,1.549-3.917-.382-2.815,2.651-.24.382-1.593-7.473-3.578-7.091-6.971-2.826-4.167-.687-3.96,3.611-.862-.927-2.607-2.215-1.865-1.909-.087-2.662.731-2.509,3.513-1.516,1-2.346-1.44-2.5.927Z" transform="translate(-2.949 14.399)" fill="#d5d5d5"/>
    <path id="sicily" d="M493.022,223.091l-1.582-.851-5.4.851.186,1.462L491.08,227l.731.8,1.277.185-.066-4.887Z" transform="translate(-1.64 17.091)" fill="#d5d5d5"/>
    <path id="malta" d="M492.762,230.47l-1.822.371.065,2.018,1.636.546.731-.611-.611-2.324Z" transform="translate(-1.194 17.839)" fill="#d5d5d5"/>
    <path id="ukraine" d="M516.012,173.429l-3.164,1.778.786,3.36-2.924,6.164.022,2.716,1.375.873,8.815.436,2.466-2.04,2.64.884,3.786,5.051-2.771,4.975,3.295.96,4.309-4.964,2.465.447,2.291,1.593-2.018,2.662,2.727,4.255h2.9l1.495-2.836,3.076-.622.087-2.3-5.716-.884.174-2.476h5.542l5.978-4.789,2.64-2.3.437-7.266-11.782-1.058-4.833-6.818-3.338-1.146-4.047.175L530.9,174.76l-8.291.109-2.695-1.244-3.906-.2Z" transform="translate(0.603 12.347)" fill="#d5d5d5"/>
    <path id="moldova" d="M520.75,187.855l3.382,5.2L523.848,196l1.211.055,2.869-4.855-3.447-4.276-1.953-.807-1.778,1.735Z" transform="translate(1.516 13.806)" fill="#d5d5d5"/>
    <path id="romania" d="M512.73,187.6l-.284,1.615-6.316,5.258,5.28,7.746,3.382,2.367h6.088l2.007-1.68,2.695-.349,2.007,1.211,3.557-4.047-.687-2.029-3.611-.927-2.466-.12.12-3.469-3.273-5.149-8.5-.425Z" transform="translate(0.187 13.941)" fill="#d5d5d5"/>
    <path id="montenegro" d="M505.22,207.5l-.049-1.02-1.44-2.023-2.331,3.3.458,1.385,1.9.349Z" transform="translate(-0.243 15.474)" fill="#d5d5d5"/>
    <path id="serbia" d="M505.89,194.539l-2.237,1.681h-1.091l-.742,2.312,2.64,3.067.174,2.433-.372.527,1.785,2.507.062,1.33,1.285,1.245,4.189-1.276-.35-5.958Z" transform="translate(-0.205 14.572)" fill="#d5d5d5"/>
    <path id="bulgaria" d="M511.44,202.4l.174,5.433,1.833,3.818,6.884.12,3.1-2.193,3.044-1.211-.742-3.469.687-1.855-1.549-.807-2.127.175-1.669,1.68-7,.055L511.44,202.4Z" transform="translate(0.67 15.272)" fill="#d5d5d5"/>
    <path id="albania" d="M504.02,209.921v5.029l1.44,2.716,1.036-.12,1.778-3.24-1.036-1.451-.4-3.589-1.375-1.276-1.44,1.931Z" transform="translate(-0.005 15.795)" fill="#d5d5d5"/>
    <path id="macedonia" d="M511.226,208.01l-3.676,1.211.174,3.12.862,1.1,4.364-2.029-1.724-3.4Z" transform="translate(0.316 15.797)" fill="#d5d5d5"/>
    <path id="greece" d="M506.72,218.276l-.12,1.451,5.051,2.542,2.411.927-1.265,1.331-2.815.284-.4,1.276.971,2.193,3.153,1.68,1.375.12.174-3.764,2.062-2.487-5.629-6.655.742-2.258,1.32-.055,2.007,1.615,1.266-.633.4-2.258,5.913.055.229-3.469L521.1,211.9l-7.233-.175-4.7,2.433-2.444,4.113Z" transform="translate(0.23 15.993)" fill="#d5d5d5"/>
    <path id="thrace" d="M523.034,209.8l-.174,3.873,3.382-1.036,1.549-1.036-.458-1.68-1.6-1.276-2.695,1.156Z" transform="translate(1.708 15.854)" fill="#d5d5d5"/>
    <path id="mexico" d="M137.49,225.465l5.269,16.593-2.455,1.375.273,3.295,4.636,3.567v6.6l5.727,5.5-2.455-16.211-3.273-10.724.818-7.418,2.727.273,1.091,2.476-1.091,6.317,14.182,27.754v9.895L174.4,288.216l12.546,5.771,5.182-3.022,7.364,6.044,4.364-4.4-1.909-4.953,6.273-1.92,1.909,1.1,1.909-1.92h3l5.455-9.622-2.727-2.476L207.125,275.3l-2.455,7.146-6.273,1.1-7.364-3.022-3.273-10.44,2.476-13.168-5.062-3.153-2.411-12.644-2.018-.862L177.059,244l-4.233-2.258-1.658-8.433L154.4,231.553l-8.662-6.513-8.248.425Z" transform="translate(-33.338 17.345)" fill="#d5d5d5"/>
    <path id="crete" d="M516.817,230.59l1.778.055.742,1.1h2.586l1.724-.633.578.7-1.146,1.506-5.051.175-.917-1.211-.971-.578.677-1.113Z" transform="translate(1.097 17.85)" fill="#d5d5d5"/>
  </g>
</svg>
